<svg xmlns="http://www.w3.org/2000/svg" viewBox="0 0 200 200"><g fill="#000000" fill-rule="evenodd"><path d="M194.27 90.18c-1.62-6.54-11.55-17.71-16.11-22.66 3.7-5.58 11.53-18 12-24.63a4.74 4.74 0 0 0-2.59-5c-5.79-3.62-20.68-5-27.53-5.45-1.48-6-6.43-25.31-12.29-27.23s-20.42 10.52-25.05 14.53C120.76 19.26 97 6.58 92.22 8.81c-5.32 2.49-6.53 20.75-6.86 26.65-6.36 1.12-20.19 3.87-25.14 7.94-1.85 1.52-2.49 3.08-1.41 6.32C54.87 48.38 45.14 51 51.67 55A10.57 10.57 0 0 0 45 59.34a2.11 2.11 0 0 0 1.28 3 15 15 0 0 0-4.36 3.83c-1.7 2.45-1.24 5.37 1.72 5-2.3 2.9-.44 5.73 1.51 5.51-.28 2.27.4 4 1.11 6.88a12.15 12.15 0 0 0 5.31 6.83 8.28 8.28 0 0 0-1.86 6.28c.31 2.48 1.36 3.73 3.1 3.73 3.56 0 4.17-4.69 3.5-8.09l.28.09s.22.93.23 1a15.73 15.73 0 0 0 .83 2.42 39.34 39.34 0 0 0 4.4 7.13 7.28 7.28 0 0 0 2.22 1.83c-.16.85-.81 2.91-1.33 4.83A85.27 85.27 0 0 0 47.61 111a40.93 40.93 0 0 0-23.09 12.64A72.53 72.53 0 0 0 7.06 157a51.85 51.85 0 0 0-1.5 14.28c.32 5.33 1 10.93 4 15.27 2.54 3.59 6.74 6.34 13.81 7.32 10.7 1.48 19.53-1 29.22-5.44 13.65-.66 20.17-.73 38.47 1.95a66.68 66.68 0 0 1 12.3 3.37.75.75 0 0 1 0 .11c-.15.26.37.59.42-.1a.5.5 0 0 0 .31-.46c0-1-.14-2.94-.21-3.94a.48.48 0 0 0-.29-.42c-.11-1.72-.24-3.72-.36-5.78a.5.5 0 0 0 .21-.44l-.23-3.95a.45.45 0 0 0-.23-.39v-.75a23.33 23.33 0 0 0 10.76 7.19c5 1.38 12.33.62 17.21-2.67 6.38-4.3 8.17-13 8.72-20.66a163.94 163.94 0 0 0 .06-25.92c2.34-1.11 3.16-3.49 2.73-6.1 3 1.52 7.52 3.59 10.89 3.91a4.85 4.85 0 0 0 5.18-2.39c3.65-5.45 5-19.66 5.45-26.26 7-1.32 22.69-4.61 28.32-9 2.05-1.62 2.58-3.11 1.97-5.55zm-147-6.9c-.78-3.13-1.41-4.65-1.11-6.79a10.19 10.19 0 0 0 2.53-2.19c.28 2.61 4.84 1.68 7.46-1.38a2 2 0 0 0 2.22 2 20.81 20.81 0 0 0-2 8c-1.67-1.27-5.65-.68-5.93 1.57a7.11 7.11 0 0 0 .71 4.31 11.57 11.57 0 0 1-3.9-5.52zm5.86 16.09c-1 .11-2.11-.12-2.45-2.84a7.2 7.2 0 0 1 1.83-5.74 1.28 1.28 0 0 0 .78.1 10.74 10.74 0 0 0 1.89 1c.63 2.42.56 7.19-2.07 7.48zm10.1 10.73c.53-2.12 1.29-4.61 1.42-5.45 0-.13-.06-.18-.16-.24a6.94 6.94 0 0 1-2.62-2.41 30.05 30.05 0 0 1-4.22-7.58c-1-2.94-.09-2.24-1.52-2.74-.33-1.22-.51-1.36-.76-2.24 0-.22-.08-.25-.12-.42a.5.5 0 0 0-1 .17 1.25 1.25 0 0 0 .11.41c.27 1 .27.73.56 1.59a9.61 9.61 0 0 1-1.32-.76c0-.32-.21-.47-.43-.67a5.64 5.64 0 0 1-1.76-5.1c.16-1.35 3.22-1.71 4.32-.87.58.45.79 1 1.28.79a.48.48 0 0 0 .28-.49 19 19 0 0 1 1.35-7.84 17.59 17.59 0 0 1 2-3.67c-.16 1.27 0 2.59 1.22 3.07 1.42.58 4 .05 5.84-2-.37 1.08-.34 2.46.75 2.83 1.5.51 2.92-.45 4-1.57.1-.09.37-.48.63-.8v.6a2.94 2.94 0 0 0 2.3 2.82c1.15.23 2-1.18 2.54-2.19-.02 1.66-.08 3.13 1.59 3.66 1.31.41 2.32-.45 2.74-1.75a3 3 0 0 0 3.44.76 51.39 51.39 0 0 1-.83 20.15 9.75 9.75 0 0 1-6 6.6.49.49 0 0 0-.3.48 22.81 22.81 0 0 0 .67 5.46.53.53 0 0 0 .37.37c.54.13 1.2.31 1.91.53-.26 3.82-3.36 12.49-5.48 12.81-5.84.9-10.5-2.9-13.93-7.67a24.32 24.32 0 0 1-3.44-6.33c4.47-.23 4.49 0 4.57-.31zm-4.94.34a24 24 0 0 0 3.19 6.76c2.75 4.2 6.79 7.81 11.78 8.28a9.42 9.42 0 0 0-2.07 4.58c-.48 3.62 1.38 8.13 5 7.27 1.68-.41 2.35-2.55 2.48-4.26a9.1 9.1 0 0 0-2.24-7.74c3.12-.93 5.44-10.12 5.51-13.6 2.28.7 5.07 1.69 7.19 2.55-.1 10.18-2.6 27.17-12.7 28.3-7.3.81-12.59-6.16-16.57-12.31-1.27-2-8-16-9.43-19 2.57-.42 5.23-.68 7.86-.83zm19.07 24.46a2 2 0 0 0 .47-.28c-.33.85-.88 1.78-1.78 1.94-3 .57-4.28-3.56-3.88-6.37a9.76 9.76 0 0 1 1.34-3.52 9.59 9.59 0 0 0-.57 2.72c-.05 2.93 1.69 6.52 4.42 5.51zm22.08-5.48a25.69 25.69 0 0 0 1 7 72.46 72.46 0 0 0-13.42-3.13 42.07 42.07 0 0 0 1.89-6.78 39.54 39.54 0 0 1 10.53 2.91zm3.88 36.28c-10-4.81-27.48-6.29-38.44-7-7-.42-20 .4-27.07 1.06a75.66 75.66 0 0 0 3-9.1c8-.68 24.84-.77 32.37-.38 6.82.33 16.66 2.14 23.31 3.52a46 46 0 0 1 8.57 2.81 75.52 75.52 0 0 1-1.74 9.09zm-18.49-27.89c10.74 1.49 12.06 2.06 17.76 4.38a29.21 29.21 0 0 1 2.53 9.5c-10.39-4-23.88-5.47-34.89-6.41-7.23-.6-21 0-28.36.53a61 61 0 0 0 .93-7.32c5.75-.8 15-1.37 20.81-1.62 7.91 9.37 16.52 8.25 21.22.94zM56.29 125c2.8 5.74 2.9 5.71 3.75 7-5.69.34-12.3 1-17.24 1.69a55.19 55.19 0 0 0-.88-7.46c4.26-.57 10.08-1 14.37-1.23zM35.6 164.83c7.33-.8 20.71-1.19 28.21-1.19-1.59.81-2 3.59-2.11 5.38-8.82-1.13-20.23-.26-29 1.2a60.07 60.07 0 0 0 2.9-5.39zm63.77-40.37a63.81 63.81 0 0 0-9.71-2.61 69.15 69.15 0 0 0 .47-7.17 26.46 26.46 0 0 1 4.85 2.5c1.94 1.22 3.84 2.57 4.46 3-.02.62-.07 2.28-.07 4.28zm-7.22-10a85.55 85.55 0 0 0-12-4.31 20.75 20.75 0 0 1-.57-4.64c2.17-1-1.15-.58 10.74.56 1.92 9.07 2.26 8.62 1.83 8.43zm-42.22-3c1 2.25 2.51 5.44 4 8.58-4.65.38-9.42.9-13.12 1.42-.54-1.89-.59-2.18-2.67-6.58 3.21-1.68 8.2-2.79 11.79-3.35zm-11 81.07a43.28 43.28 0 0 1-15.37.51c-6.76-1-10.78-3.58-13.21-7-2.95-4.21-3.53-9.64-3.83-14.81a51.39 51.39 0 0 1 1.5-14 75.61 75.61 0 0 1 4.41-13.44 74.76 74.76 0 0 1 12.77-19.54c3.08-3.27 7.86-7.31 12.11-8.75 6.25 13.26 5.59 26.83.82 40.69a66.52 66.52 0 0 1-6.8 14.4.46.46 0 0 0 .46.72c8.36-1.58 21.22-2.65 30.22-1.48a.38.38 0 0 0 .43-.36c.06-1.5.36-4.56 1.73-5.2a.77.77 0 0 1 .85.09c1.17.89 1.11 3.91 1.33 4.89.08.37.26.56.4.6 1.94.63 5.47-.86 6.51.66a2 2 0 0 1 .18 1.59c-.2.76-2.22 1-3 1.13-1.22 0-2.49.11-2.87.11s-.39.51 0 .56c2.4.12 5.11-.61 6 .31a1.5 1.5 0 0 1 .22 1.59 1.89 1.89 0 0 1-.52.62 5.25 5.25 0 0 1-1.93.44c-3 .37-3.29 0-3.37.39a.23.23 0 0 0 .12.25c.39.06 5 0 5.31.5.64 1 .43 2-.91 2.72-2.59 1.38-11.16 3-12 3.39-6.27 2.89-13.24 6.72-21.6 8.49zm26.87-9.29a40.22 40.22 0 0 0 7-2.21c1.53-.83 1.81-2.12 1-3.32-.26-.41-1.61-.51-1.77-.53a5.22 5.22 0 0 0 1.51-.39c5.58.54 12.06 1.57 17.59 2.59a61.14 61.14 0 0 1 11.63 3.79c.14 2 .28 3.89.4 5.56-10.74-3.92-26.11-4.97-37.4-5.42zm36.67-5.15c-8.18-3.56-19.7-5.15-28.39-6a2.54 2.54 0 0 0-.26-2c-1.3-1.93-4.88-.38-6.73-.92-.31-1.24-.11-4.64-1.81-5.59 8.56.06 17.56 1.45 26.07 3a58.06 58.06 0 0 1 11.13 3.58 32.16 32.16 0 0 0-.05 8zm36.25-16.7c-.52 7.31-2.2 15.83-8.28 19.93-4.57 3.1-11.64 3.9-16.43 2.59-4.32-1.19-8-4.13-10.9-7.49a31.47 31.47 0 0 1 .18-6.23.5.5 0 0 0 .14-.27c.56-3.47.79-3.51.63-3.84.64-3.05 1.46-6.43 1.79-9.51a.5.5 0 0 0 .14-.31 28.94 28.94 0 0 0 .1-4 .48.48 0 0 0-.1-.29c-.24-4.79-1.56-7.58-3.66-13.2a24.32 24.32 0 0 1-1.93-9.66c0-.54-.16-2.66 0-8.65a23.7 23.7 0 0 1 2.27 2.14c4.4 4.76 12.92 16.54 13.86 17.16a32.45 32.45 0 0 0-4.49 8.06c-.38 1-.69 2.08-1 3.12a.2.2 0 0 0 .37.14c.13-.27 3.06-6.25 4.57-9.23 1.6-3.15 3.25-5.12 6.43-10.17 2.21 1.16 7.81 2 10.3 1.86 1.13 2.17 3.93 2.85 6 2.3a165.89 165.89 0 0 1-.03 25.62zm-11-49.48a2.67 2.67 0 0 0-3 .74c-.44.47-1.44 0-1.45-.39a1.86 1.86 0 0 1 1.11-1.74c1.5-1 3.28.22 4 .22a.51.51 0 0 0 .47-.56c0-.44-1.16-7.06 0-7.69a.77.77 0 0 1 .55 0 7.23 7.23 0 0 1 1 2.66c.49 2.26.75 5 .75 5a.49.49 0 0 0 .53.43.48.48 0 0 0 .42-.53c-.3-3.16.19-5 .63-5.06.64 0 1 .2 1.08 1 .22 1.39-.17 10.17.62 11.74a36.36 36.36 0 0 1 2.52 7 4.75 4.75 0 0 0-4.49 3.6c-1.77-.22-5.49-.37-7.52-.72a44 44 0 0 0 2.59-6.33c.15-.51.4-1.42.11-1.86-.39-.62-1.83-.73-2.69-1.18s-2-1.47-1.68-2.57c.09-.37 1.35-.44 1.46-.19 1 2.43 3.86 2.31 4.24-.68.16-1.59-.45-2.47-1.25-2.8zm-3 16c2.15.56 5.26.88 7.52 1.21a8.26 8.26 0 0 0 .12 3.5c-2.25 0-7.68-.73-9.52-1.51.61-.99 1.26-2.11 1.85-3.11zm-7.91 11.24a79.21 79.21 0 0 1-5.32-6.48 107.83 107.83 0 0 0 14.81-10.25c-2.22 6.06-4.39 8.88-9.52 16.78zm23.07-7.85a2.52 2.52 0 0 1-3.91 1.67c-1-.64-1.17-2.3-1-3.5.37-3.43 4.45-3.89 5 .11a5.16 5.16 0 0 1-.12 1.77zm53.49-38.47c-1.87 5.46-24.35 9.88-30 10.93a.54.54 0 0 0-.43.48c-.44 6.35-1.75 20.84-5.31 26.14a3.79 3.79 0 0 1-4.19 1.92c-3.42-.32-8.3-2.65-11.36-4.23a4.74 4.74 0 0 0-4.15-3.42 36.89 36.89 0 0 0-2.67-7.43 12 12 0 0 1-.37-3.25c-.27-6.94.29-8.55-.81-9.54a1.92 1.92 0 0 0-1.45-.43 1.27 1.27 0 0 0-1 .58c-.51.74-.14 1.22-.58-.45-.21-.83-.62-2.34-1.44-2.54-3.14-.78-2.25 4.85-1.8 8.08a6.39 6.39 0 0 0-2-.42c-3 0-4.76 3.63-2.19 4.42a1.66 1.66 0 0 0 1.76-.4c1-1.09 2.94-.93 2.66 1.32s-1.89 2.1-2.61.45c-.46-1-2.77-.76-3 .33-.36 1.49.75 2.77 2.12 3.48.65.34 1.85.56 2.29.81.15.09.12.08.13.19a4.19 4.19 0 0 1-.1.71c-4.53 3.68-10.9 8.53-16.08 11.25-5.74-7.31-9.48-12.31-17.18-16.62-2.55-9.51-2-10.08-2.77-10.16-2.58-.24-5.62-.56-8.76-1 3-2.3 3.79-5.09 4.43-8.75a54.19 54.19 0 0 0 .36-16.1c-.35-2.44-.44-1.67-.11-2.25a2.18 2.18 0 0 0 .2-1.75l.84.2a3.23 3.23 0 0 0 3.14-2.25c.49-1.7-.84-3-2.47-3.7 1.44-.4 2.53-1.22 2-2.62-.66-1.76-2.63-2.38-4.49-2.57a3.05 3.05 0 0 0-.43 0c2.52-2-.28-5.8-4.88-4.63a3.41 3.41 0 0 0-.29-3.28 1.84 1.84 0 0 0-1.33-.56c-1.22-.09-.52.46-.18-1.42.47-2.55-1.87-3.1-3.87-1.88a3.07 3.07 0 0 0 0-2.09c-.93-2.09-3.64-1.88-5-.27a3.36 3.36 0 0 0-.6 1.46c-1-1.92-4.8-5-7.94-4.69a2.16 2.16 0 0 0-1.88 2.49c-1-2.86-.4-4 1.14-5.3 4.81-4 18.86-6.82 25-7.94a.35.35 0 0 0 .3-.34c.28-5.56 1.42-24.08 6.39-26.44C97 7.18 122.33 20.62 122.9 20.12c4.38-3.76 19.2-16.19 24.66-14.37S158 27.17 159.38 32.87a.37.37 0 0 0 .33.28c5.61.41 26.61 2.14 29.21 7.23s-8.6 22.17-11.78 26.92a.5.5 0 0 0 .05.6c3.74 4.1 17.94 19.72 16.15 24.98z"></path><path d="M153.06 48.75c-1.22-1.11-5.26-4.28-6.54-4.4a.6.6 0 0 0-.48.14c-1.22 1.08-25.5 23.85-26.27 24.68-1-.69-9.29-9.13-11-9.14-2.68 0-9.48 6.41-9 8.86.63 2.91 16.62 18.55 20.51 18.72 5.82.24 31.49-29.57 35.34-34 1.17-1.33-1.25-3.69-2.56-4.86zM67 82.78a4.82 4.82 0 0 1 3-.49 6.73 6.73 0 0 1 2.91 1 .2.2 0 0 0 .34-.2c-.64-1.67-4.86-2.81-6.52-.59a.2.2 0 1 0 .27.28zm9.3 10.54c1.37.27 4 0 4.14-1.42a20.15 20.15 0 0 0-2.23-9.39.2.2 0 0 0-.36.18c.52 1.27 1.79 7.39 1.65 9.12 0 .32-.91.68-1.23.79-1.69.56-2.11.13-2.15.5a.2.2 0 0 0 .18.22zM82 82.76c.06.64-.07 1.31.53 1.33a.49.49 0 0 0 .5-.62 8.1 8.1 0 0 0-.12-1.33c.14-.84-1.38-.78-.94.33zm-9.32 13.05a.2.2 0 0 0-.1.27 4.51 4.51 0 0 0 6.32 3.14.2.2 0 0 0-.11-.39 6.91 6.91 0 0 1-2.58-.23 4.62 4.62 0 0 1-1.6-.88C73 96.4 73 95.66 72.68 95.81zm37.91 9.75c-.41-.12-.73-.17-.93.22a14 14 0 0 0-.76 3.29c0 .18 0 .39.17.43a28 28 0 0 0 8.18.34c.62-.15.77-.69.35-1.08-.82-.76-5.51-2.76-7.01-3.2zm-1.29 3.59a18.69 18.69 0 0 1 1-2.85c.17.08 3.41 1.35 5.88 2.69a65.33 65.33 0 0 1-6.88.16zm10.92-11.75a.52.52 0 0 0-.48-.1 10.81 10.81 0 0 0-3.25 1.7.25.25 0 0 0 0 .19 27.84 27.84 0 0 0 4.9 6.56c.51.39 1 .16 1.06-.41.06-1.07-1.65-7.45-2.23-7.94zm-3.32 1.74a18.18 18.18 0 0 1 2.82-1c0 .21 1.18 3.9 1.61 6.26-.6-.68-4.01-4.5-4.43-5.26z"></path></g></svg>