<svg xmlns="http://www.w3.org/2000/svg" fill="none" viewBox="0 0 200 200"><g id="evaluation--work-evaluation"><g id="paper"><path id="vector" fill="#000000" d="M44.476 148.576c.017-.208-.068-1.694 1.136-2a115.686 115.686 0 0 1 13.16-2.587c3.291-.468 3.734-.514 4.2.835.513 1.5.572 2.128.712 2.151.093.015.054.017 2.5-3.094 4.31-5.472 4.049-5.544 4.643-5.227.825.474 1.626.99 2.4 1.544.855.577.6.382-3.786 6.052-1.343 1.736-2.89 3.832-4.452 5.771-.327.407-.33.333.071 2.913.93 5.979.974 6.309.223 6.777-2 1.246-10.059 2.476-11.843 2.77-4.425.73-5.617.972-6-.377a115.775 115.775 0 0 1-2.964-15.528Zm18.028-.137c-.164-1.072-.171-.874-.641-3.218-.112-.559.017-.5-2.431-.106-5.886.948-1.933.263-10.413 1.838-3.522.654-3.471.487-3.41 1.026.079.695 1.8 10.716 2.93 15.492.079.333.188.573.465.5.861-.228.035.153 15.355-3 .284-.059.174-.017-.171-2.22-.669-4.271-.372-5.225-1.2-4.175-5.316 6.7-4.252 6.459-7.081 3.928-6.124-5.479-6.043-5.324-5.668-5.916.22-.347 1.169-1.481 1.363-1.71 1.248-1.474 1.31-1.564 1.743-1.268.024.017 4.527 4.021 4.777 4.246.35.314.26.056 1.16-1.113 3.273-4.258 2.887-3.643 3.218-4.304h.004Z"></path><path id="vector_2" fill="#000000" d="M38.382 120.477c0-2.073-.38-2.279 16.767-4.88 1.633-.248 1.8 1.446 2.311 3.13.1.333-.237.912 6.488-7.927.445-.585.284-.554 3.091 1.26.95.614.543.659-2.469 4.538-1.745 2.247-4.524 5.9-5.644 7.23-.436.516-.307.986 0 2.961.957 6.07.972 6.459.2 6.872-2.54 1.362-10.257 2.508-13.108 2.918-3.762.54-3.429.442-4.281.117-.925-.355-3.676-16.17-3.355-16.219Zm19.939 12.029c0-.024-.709-6.449-.993-6.449-.179 0-.15.061-1.3 1.53a41.675 41.675 0 0 1-3.612 4.346c-.541.6-.926.028-5.453-4.021-.025-.022-2.09-1.9-2.6-2.388-.639-.612-.577-.71 1.018-2.568 1.33-1.549 1.449-1.742 1.919-1.331 3.713 3.243 3.456 3.061 4.545 4.053.492.448.328.316 2.345-2.33 2.029-2.663 2.335-2.639 2.1-3.635-.687-2.878-.392-3.083-.994-2.981-15.54 2.65-15.061 2.68-15.529 2.737-.468.057-.376.044.781 6.559a81.021 81.021 0 0 0 1.975 9.579c.125.47.157.289 1.6.044 6.65-1.131 1.758-.247 8.371-1.581s5.957-1.016 5.827-1.564Z"></path><path id="vector_3" fill="#000000" d="M32.623 91.017c.358-2.016-.5-2.044 16.966-4.513 1.4-.2 1.834 1.731 2.136 3.126.132.607.232.243 6.579-7.715.568-.712.279-.575 3.148 1.251.849.541.435.737-1.163 2.74-7.171 8.981-7.034 8.858-7.171 8.981-.506.455-.313.695.174 4.116.7 4.9.7 5.277-.135 5.681-2.813 1.363-12.362 2.66-14.843 2.937-2.481.277-2.775.156-3.236-1.821a135.708 135.708 0 0 1-2.455-14.783Zm18.021.132c-.526-2.949-.5-2.535-.619-3.206-.061-.347-.179-.3-1.655-.095-10.189 1.44-11.91 1.984-14.335 2.305-.347.046-.314.15-.139 1.283 1.488 9.612 1.666 10.539 2.655 14.944.083.369.284.316 1.354.134 4.153-.7 13.019-2.316 14.454-2.66.186-.045.174-.012-.083-1.926-.644-4.8-.509-4.39-.675-4.792-.166-.4-.126-.065-3.463 3.95-1.986 2.388-1.878 2.058-2.746 1.525-2.822-2.563-4.3-3.86-6.919-6.442-.617-.607-.5-.479 2.254-3.652.523-.6.47-.448 3.759 2.565C46.452 96.883 46.307 97 46.7 96.5c3.945-5.065 3.988-4.864 3.944-5.35Z"></path><path id="vector_4" fill="#000000" d="M40.049 78.775c-13.29.7-21.557-16.929-11.692-27.245 13.434-14.046 34.518 1.97 26.21 18.261-3.196 6.265-9.474 9.253-14.518 8.984ZM53.72 68.768a15.11 15.11 0 0 0-4.165-18.163c-9.276-7.548-23.3-1.275-24.24 10.647-1.291 16.463 20.726 23.077 28.405 7.516Z"></path><path id="vector_5" fill="#000000" d="M112.828 78.69a.561.561 0 0 1 .1.927c-1.049 1.1-4.973 1.7-18.623 4.21-21.924 4.037-21.341 3.7-24.782 4.018a.826.826 0 0 1-.744-1.4c.6-.744-.111-.576 21.351-4.39 20.67-3.672 21.641-4.023 22.698-3.365Z"></path><path id="vector_6" fill="#000000" d="M78.265 115.961c-.844 0-1.448.115-1.674-.5-.215-.592.433-1.139 1.06-1.319 1.551-.445 33.42-5.89 35.287-4.865.482.264.522.634.142 1.032-1.472 1.542-34.805 5.782-34.815 5.652Z"></path><path id="vector_7" fill="#000000" d="M71.9 94.348c-1.052.05-.932-1.326-.073-1.647 2.641-.986 30.331-5.87 33.772-5.734.492.02 1.745.107 1.711.6-.06.862-3.61 1.466-4.288 1.6-6.422 1.28-24.583 4.874-31.122 5.181Z"></path><path id="vector_8" fill="#000000" d="M105.381 118.135c2.344-.034 2.946 1.769-.661 2.457-8.18 1.559-24.044 3.83-24.068 3.84-1.253.508-2.768-1.784.125-2.342 5.313-1.025 19.214-3.451 24.604-3.955Z"></path><path id="vector_9" fill="#000000" d="M80.948 144.264c-.225-1.288 2.908-1.835 8.094-2.815 1.008-.191 6.9-1.167 9.018-1.456 4.058-.554 2.7 2.245 1.721 2.371-15.881 2.059-18.566 3.436-18.833 1.9Z"></path><path id="vector_10" fill="#000000" d="M62.737 15.793a5.2 5.2 0 0 0-4.954 2.063c-1.13 1.892.387 3.916 3.213 3.972 1.361-.19 3.011-.293 4.171-1.967 1.309-1.89-.184-3.788-2.43-4.068Zm-.02 4.5a3.326 3.326 0 0 1-3.688-.2c-1.323-1.225.222-2.878 2.6-2.863a1.643 1.643 0 0 1 1.088 3.061v.002Z"></path><path id="vector_11" fill="#000000" d="M44.8 64.321a11.858 11.858 0 0 1 7.484 3.46c.619.64-.3 1.58-1.1.732-5.07-5.414-16.826-3.378-18.681 4.6-.384 1.654-1.263.861-1.209.227.45-5.255 6.182-7.783 6.415-8-.223-.23-.323-.173-1.077-.526a6.215 6.215 0 0 1-3.26-7.7 7.09 7.09 0 0 1 11.06-3.079 6.348 6.348 0 0 1 2.239 3.833c.571 5.584-4.216 6.355-1.871 6.453Zm.807-5.55a5.078 5.078 0 0 0-3.1-4.686c-6.927-3.085-11.864 6.89-4.822 9.861 3.724 1.572 8.186-1.456 7.924-5.176h-.002Z"></path><path id="Subtract" fill="#000000" fill-rule="evenodd" d="M115.205 16.074c3.043-.37 3.226-.392 3.602.312.947 2.04 2.691 8.832 4.871 18.499-3.139.539-6.271 1.08-9.356 1.613-1.12-5.356-1.861-8.823-2.045-9.603-.063-.269-.074-.267-1.156-.104-.572.086-1.443.218-2.781.378-4.371.525-16.195 2.095-16.156 2.565.087 1.03.191 1.666-.052 2.11-.614 1.124-3.446 1.035-14.378 3.032-7.365 1.346-8.66 1.49-9.672 1.604-1.135.126-1.913.213-10.514 1.913-9.773 1.932-18.363 2.866-18.388 2.866-1.446.252-1.654-1.136-1.809-2.165-.09-.607-.163-1.089-.46-1.035-19.58 3.563-21.329 3.532-21.425 3.916a.313.313 0 0 0 .003.125c2.186 15.36 8.223 50.06 10.854 65.06 6.423 36.625 13.884 67.7 14.384 68.9.289.686 58.294-7.349 95.523-15.1.779-.162 1.153-.167 1.299-.352.194-.248-.02-.817-.22-2.513-.605-5.143-1.856-12.953-3.491-22.253 2.628-1.877 5.439-3.898 8.299-5.968 3.85 22.593 6.214 39.58 4.942 39.87-34.131 7.82-69.018 12.688-110.673 18-3.045.389-3.983.677-4.375.336-.188-.164-.25-.472-.359-.985C12.983 99.256 6.12 43.682 5.853 41.519l-.008-.066a183.258 183.258 0 0 0-.538-3.624c-.45-2.88-.47-3.005.429-3.322 4.353-1.53 13.725-3.492 20.498-4.91 4.415-.924 7.725-1.616 7.82-1.808a1.1 1.1 0 0 0 .127-.7 2.916 2.916 0 0 1 .051-1.077c.074-.95 1.208-1.312 11.289-3.022.323-.055.33-.193.365-.838.039-.71.11-2.038.675-4.548.11-.497.634-1.598 1.2-1.809 4.535-1.688 16.432-3.25 19.851-3.55a99.992 99.992 0 0 0 2.686-.28c2.633-.302 3.493-.4 4.23.744a25.594 25.594 0 0 1 2.121 4.37c.074.205.184.188.641.118.13-.02.289-.044.482-.069l.634-.08c10.61-1.343 10.933-1.384 11.359-.153.244.707.36 1.18.436 1.491.143.584.15.61.606.578.323-.023 1.114-.125 2.467-.3 2.99-.388 8.728-1.13 18.233-2.163 1.561-.168 2.764-.314 3.698-.427Zm24.147 97.909a2472.669 2472.669 0 0 0-9.907-51.893c-3.276.554-6.453 1.098-9.521 1.63 3.564 17.564 7.758 38.684 11.18 57.06 2.648-2.196 5.42-4.481 8.248-6.797ZM49.995 23.245c-2.714.46-6.497 1.102-11.623 2.061-2.002.375-2.753.349-2.894.63-.144.285.346.889.793 2.557.367 1.365.747 3.2 1.165 5.224.364 1.76.758 3.664 1.199 5.527.178.75.42.704 2.057.392.379-.072.832-.158 1.377-.252 23.071-3.944 35.272-5.93 41.718-6.978 7.218-1.175 7.22-1.175 7.189-1.437-.169-1.416-.217-1.9-.283-2.38-.072-.525-.165-1.046-.459-2.767-1.268-7.425-1.384-8.499-1.84-8.67-.088-.033-.187-.033-.309-.038-.357-.013-12.857 1.425-15.557 1.742-1.831.216-1.572-.454-.372-.735.33-.077.805-.173 1.508-.316.413-.084.905-.184 1.492-.306.087-.018.161-.01.198-.044.121-.111-.177-.678-1.792-4.173a.666.666 0 0 0-.726-.438c-.674.082-1.525.171-2.534.277-4.156.435-10.974 1.15-18.966 2.775-2.096.426-2.948.46-3.328.901-.428.496-.26 1.506-.592 4.165a7.228 7.228 0 0 0-.186 1.723c.468-.071 1.095-.174 1.797-.289 2.134-.349 4.964-.812 6.147-.864.828-.037 1.207.41.074.728-.844.238-2.499.518-5.253.985Z" clip-rule="evenodd"></path></g><g id="pencil"><path id="vector_12" fill="#000000" d="M194.837 84.979a7.925 7.925 0 0 0-12.3-4.831c-9.164 5.726-65.882 51.859-72.826 59.152-1.566 1.645-2.821 3.549-2.577 5.8.177 1.637-3.115 3-4.665 6.038a.765.765 0 0 0 .088.957c.817.872 2.9-.685 6.924-3.167.729-.45 1.065.319 3.392.005 2.156-.291 5.745-2.427 9.548-5.044 7.546-5.193 25-17.717 36.978-26.7 26.763-20.076 25.015-19.342 24.932-18.444-.31 3.35-3.725 6.2-9.136 10.543-10.958 8.8-19.476 14.548-19.722 16.77a1.3 1.3 0 0 0 1.17 1.195c3.578.153 25.206-18.354 28.035-21.112 6.509-6.343 3.642-10.88 4.222-11.334 3.1-2.43 6.943-4.478 5.937-9.828Zm-79.461 61.911c-4.188 2.018-7.175-.015-6.887-2.514.24-2.085 1.882-4.063 3.666-5.509a8.19 8.19 0 0 0 2.895 5.433c2.318 1.872 3.517 1.052.326 2.59Zm52.409-38.063c-10.974 9.066-48.811 35.763-48.836 35.782-.494.379-.847.288-1.808-.6a9.32 9.32 0 0 1-3.517-5.771c.056-1.207-.2-.242 28.6-24.516 10.894-9.18 8.644-6.912 17.845-14.521 2.305-1.907-.059.037 3.989 4.936 3.242 3.927 4.758 3.839 3.727 4.69Zm2.45-2.039c-.411.319-.538.321-.962.018a18.37 18.37 0 0 1-6.189-8.273c-.463-1.471.273-1.711 1.324-2.555 2.258-1.814 18.286-14.2 21-15.22a5.369 5.369 0 0 1 5.112.467c6.173 4.383 1.918 12.594-3.962 6.765-2.489-2.467-2.156-3.01-2.792-2.97-.571.038-.557.8-.145 1.616 2.645 5.218 6.312 4.89 6.723 5.113-.378.595-17.912 13.336-20.109 15.039Z"></path></g><g id="stars-2"><path id="vector_13" fill="#000000" d="M187.857 47.223c-.254-4.917-2-15.878-4.269-20.14a5.21 5.21 0 0 0-1.532-1.7 6.646 6.646 0 0 0-3.162-.648C162.26 26.14 85.718 38.99 68.184 43.3c-4.633 1.138-5.015.94-4.138 9.146.423 3.957 2.443 16.982 4.581 19.905 1.026 1.4 2.485 1.17 4.673.844C75.218 72.9 170.538 57.42 184.484 54.3c3.359-.753 3.55-3.639 3.373-7.077Zm-2.957 5.683c-3.712.93-12.957 2.085-50.51 8.353C99.2 67.132 74.394 72.143 70.218 71.9c-1.091-.064-1.449-2.873-3.223-11.655a101.71 101.71 0 0 1-1.811-13.238c.113-2.04-.228-1.708 5.641-2.86 1.93-.38 99.462-17.692 107.951-18.028 2.4-.1 3.237.291 3.824 2.615 1.914 7.585 3.525 14.088 4 21.455a2.626 2.626 0 0 1-1.7 2.717Z"></path><path id="vector_14" fill="#000000" d="M159.841 46.366c.248-1.982.421-1.777-.1-2.109a18.382 18.382 0 0 1-3.94-3.405c-1.589-2.715 5.53-2.912 5.937-4.288.336-1.135 1.606-5.006 2.492-5.793 2.192-1.948 4.569 5.392 6.165 5.01a26.004 26.004 0 0 1 5.514-.675c.746.014 1.543.8 1.121 1.561a67.259 67.259 0 0 1-3.5 5.82c-.309.47-.037.5.908 2.516 2.107 4.493 3.053 7.172-6.17 2.283-.822-.435-1.258.289-1.917.955-7.883 7.977-7.143 3.187-6.51-1.875Zm.864 3.838c0 2.763 5.421-4.891 7.734-3.945 4.746 1.939 6.162 2.861 6.079 2.114-.017-.156-1.628-3.646-2.205-4.794-.544-1.082.273-2.137.955-3.243 3-4.875 3.986-4.539-1.584-3.449-1.123.22-2.244.448-2.907-.479-3.371-4.709-3.792-5.26-4.078-4.67-.419.864-1.774 5.68-1.791 5.766-.175.85-.434.68-4.085 1.765-2.783.826-2.736.281 1.6 3.969 1.229 1.045 1.06 1.173.282 6.962v.004Z"></path><path id="vector_15" fill="#000000" d="M93.547 50.691c-1.233 2.861-3.916 6.251-3.7 6.62.762 1.322 1.9 3.963 2.274 4.829.475 1.113.032 2.225-1.079 1.992a9.807 9.807 0 0 1-3.285-.991c-3.51-1.624-3.436-2.132-4.312-1.263-6.222 6.177-8.4 7.369-7.159-1.312.254-1.774.438-1.674-.078-1.992-1.064-.654-3.758-2.768-4.114-3.715-.494-1.311.915-1.777 2.246-2.269 3.6-1.333 3.664-1.121 3.772-1.561a30.164 30.164 0 0 1 2.1-5.407c2.1-3.661 4.992 4.814 6.5 4.511 4.762-.956 4.322-.653 5.69-.722.673-.034 1.143.759 1.145 1.28ZM77.157 64.4c0 1.684.835.42 4.633-2.55 2.878-2.251 1.811-1.674 8.789 1.072 1.529.6-2.523-5.046-1.956-6.233 2.582-5.406 4.716-6.354 2.783-6.148-1.914.2-5.207 1.611-6.168.2a47.971 47.971 0 0 0-3.688-4.816c-.374-.355-.455-.329-2.2 5.905-.208.744-.621.742-2.163 1.183-4.655 1.329-4.652.856-2.1 3.074 3.426 2.981 2.899 1.313 2.07 8.313Z"></path><path id="vector_16" fill="#000000" d="M132.2 49.776c.051-.434.5-.755-.627-1.359a24.315 24.315 0 0 1-3.3-2.866 1.271 1.271 0 0 1 .36-2.188 47.905 47.905 0 0 1 4.822-1.777c.772-.247.562-1.865 2.653-6 .177-.327.473-.573.827-.687 1.939-.664 4.3 5.606 5.656 5.33 1.867-.38 5.937-1.448 6.593-.086.274.568.27.576-.034 1.173-4.39 8.635-4.368 3.145-1.219 10.945.5 1.236-.066 2.142-.847 2.033-2.643-.365-3.94-1.25-6.559-2.55-.364-.18-.433-.332-1.2.152a22.794 22.794 0 0 1-3.113 2.986c-1.515 1.228-3.876 3.27-4.383 1.028-.3-1.333-.146-1.725.371-6.134Zm1.023 5.477c.761.39 5.619-5.294 7.269-4.616 4.586 1.885 6.744 3.136 6.18 1.921-.5-1.07-1.709-3.766-2.1-4.513-.564-1.084.079-2 1.806-4.689 2.054-3.19 2.372-2.988-.746-2.374-4.765.938-3.721.977-6.346-2.536-2.542-3.4-2.131-3.267-3.184.3-1.071 3.627-1 3.748-1.52 3.908-4.2 1.294-5.96 1.462-5.3 2.083 4.072 3.845 4.437 2.92 4.231 5.51-.26 3.315-.954 4.666-.288 5.006h-.002Z"></path><path id="vector_17" fill="#000000" d="M113.653 44.856c.808 1.033 1.865-.4 6.388-.333a1.249 1.249 0 0 1 1.148.742c.222.416.254.6-1.1 2.895-.369.624-1.879 3.121-2.462 3.894-.3.4.029-.007 2.166 4.978.553 1.29.157 2.45-.783 2.276-6.332-1.17-6.239-3.8-7.949-2.161-4.039 3.877-7.864 7.754-7.36 1.52.58-7.173 1.857-2.8-3.255-7.822-2.269-2.229 1.241-2.978 4.239-4 .849-.288 1.082-.281 1.314-1.047 2.947-9.713 3.934-5.698 7.654-.942Zm-8.72 14.565c0 2.775 3.316-2.26 6.591-3.718.577-.257.646-.3 4.385 1.417.827.372 1.675.693 2.541.962a.274.274 0 0 0 .212-.1.274.274 0 0 0 .06-.228 1.047 1.047 0 0 0-.1-.22c-2.42-5.078-2.721-5.051-2-6.344 3.872-6.888 5.513-5.917-2.011-4.638-1.285.219-1.8-.93-2.394-1.73-2.858-3.849-3.115-4.567-3.522-3.255-.218.7-1.183 3.933-1.583 5.323-.26.9-.551.769-4.428 1.911-2.317.683-2.105.491.671 2.884s2.345 1.138 1.578 7.736Z"></path></g></g></svg>