<svg xmlns="http://www.w3.org/2000/svg" fill="none" viewBox="0 0 200 200"><g id="card-payments--finance-card-payments-money"><g id="credit card"><path id="vector" fill="#000000" d="M189.368 110.737c-.222-.303-.232-.107-2.247-.611a39.782 39.782 0 0 0-3.534-.736c-.374-.067-.669.261-.634.56a53.038 53.038 0 0 1-1.343 5.709.552.552 0 0 0 .364.68c2.018.63 3.677 1.054 5.378 1.373.335.063.608-.149.833-.916a47.405 47.405 0 0 0 1.281-5.644.55.55 0 0 0-.099-.415h.001Z"></path><path id="vector_2" fill="#000000" d="M146.456 102.224c-1.546-.386-2.31-.467-8.62-1.577-4.298-.756-4.565-1.147-7.255-1.37-.485-.03-.127.79.149.834 1.213.438 2.555.755 3.964 1.017 1.561.291 9.122 1.928 11.701 1.928.503 0 .451-.847.061-.832Z"></path><path id="vector_3" fill="#000000" d="M140.576 104.483c-.884-.374-1.823-.58-2.604-.563-1.625-.406-.049.098-5.392-1.231-.765-.328-1.627-.452-2.476-.559-.635-.234-.547.596-.077.692 1.781.996 7.368 2.007 7.929 2.147a9.69 9.69 0 0 0 2.557.349c.449 0 .506-.763.062-.834l.001-.001Z"></path><path id="Subtract" fill="#000000" fill-rule="evenodd" d="M126.561 142.557c12.727 3.599 41.995 10.989 53.573 11.98 2.984.722 5.825-1.16 6.554-4.082 1.943-6.344 8.487-30.283 8.727-37.519.459-3.444-1-5.769-4.079-6.538v.002c-7.327-2.311-51.555-13.533-59.203-13.698-3.012-.628-5.841 1.135-6.584 4.108l-3.836 16.491.423 2.589 4.384-18.844c.606-2.425 2.922-3.881 5.482-3.354.08.005 6.519.42 28.979 5.868 21.62 5.244 29.339 7.579 30.033 7.789l.051.015c2.606.718 3.752 2.487 3.354 5.487v-.002c-.31 6.258-4.302 21.475-5.929 27.526-4.218-1.247-48.09-11.627-53.69-12.816a236.8 236.8 0 0 0-11.112-2.265l1.188 7.138c18.537 3.983 32.834 7.644 43.483 10.37 8.118 2.079 14.117 3.615 18.257 4.337-.494 1.728-.807 2.768-.877 3.001a1.21 1.21 0 0 0-.015.049c-.727 2.653-3.098 3.941-5.389 3.369h.001a.475.475 0 0 0-.084-.014c-10.122-.77-39.348-7.922-53.875-12.1l.184 1.113Z" clip-rule="evenodd"></path></g><g id="receipt"><g id="group"><path id="Subtract_2" fill="#000000" fill-rule="evenodd" d="M53.444 58.237a12.06 12.06 0 0 1 .39-3.26 39.15 39.15 0 0 0-1.093-1.124c-.685 2.188-.819 4.6-.352 6.833a15.553 15.553 0 0 0 4.587 7.233c2.456 2.455 5.214 4.555 8.071 6.532a81.605 81.605 0 0 0-.853-2.313c-2.453-1.804-4.848-3.788-7.091-6.156-2.18-2.18-3.446-4.863-3.659-7.745ZM13.04 48.852l.002-.002-.41-.463C4.837 55.762 2.463 67.853 7.161 77.921c3.557 7.114 9.4 11.885 15.249 16.66 6.3 5.145 12.608 10.296 16.076 18.389 1.91 4.495 2.803 9.385 2.582 14.142-.219 4.505-2.161 8.744-5.462 11.931-4.425 4.098-8.274 6.008-11.974 7.844l-.003.002c-.325.161-.649.322-.972.484-.686.343-.372 1.377.315 1.377 13.098 1.12 26.415.055 39.555-3.173 3.502-.813 7.062-1.895 10.783-3.195l-.27-1.432c-14.7 5.009-29.645 7.385-47.183 6.367 6.41-3.356 13.227-7.591 15.698-14.8 1.425-4.493 1.543-9.468.345-14.382-2.607-11.593-8.922-16.73-18.046-24.153l-.063-.051-.006-.005C16.235 87.784 8.107 81.17 6.5 71.097c-1.226-7.807 1.538-15.958 7.04-21.684l-.497-.562-.003.001Z" clip-rule="evenodd"></path><path id="Subtract_3" fill="#000000" fill-rule="evenodd" d="M68.262 82.072c-.981-3.675-2.223-7.359-3.752-11.143-1.982-5.016-4.62-9.641-7.838-13.746-2.912-3.809-6.591-6.989-10.937-9.456-8.382-4.61-17.006-4.627-26.269-1.958 9.264-4.647 25.051-7.854 35.672-8.659 23.56-2.082 46.473 13.037 51.992 34.762.235.94.366 1.543.442 1.936l1.052-.21c-1.261-7.31-4.357-13.991-8.977-19.363-9.748-11.742-24.903-19.079-41.258-18.867-11.955.332-33.178 4.39-43.792 11.466l-.004.002c-.675.45-1.372.916-1.957 1.499-.724.724.088 1.562.848 1.195 6.331-3.058 18.811-7.059 30.435-1.247 9.812 4.906 15.562 14.511 18.659 21.705 1.782 4.133 3.055 8.433 4.281 12.635a7.197 7.197 0 0 1 1.403-.551Z" clip-rule="evenodd"></path><path id="vector_4" fill="#000000" d="M71.209 40.8a11.164 11.164 0 0 0-2.746-.002c-.909 0-1.911.11-2.843.227-1.867.116-3.732.354-5.331.567a58.512 58.512 0 0 0-10.905 2.386c-.4.128-.339.914.287.813 6.57-1.23 11.369-2.164 16.334-2.477 1.383-.172 3.295-.159 5.364-.463.619-.206.406-1.05-.161-1.05h.001Z"></path><path id="vector_5" fill="#000000" d="M78.558 44.758c-1.189-.132-2.18-.093-2.996.113-6.637.735-12.587 1.803-15.17 2.377-2.367.395-4.188.883-5.898 1.583-.445.06-.435.895.201.821 4.452-.515 7.676-2.003 21.008-3.492 1.153 0 2.053-.145 2.916-.468.409-.15.396-.884-.061-.935v.001Z"></path><path id="vector_6" fill="#000000" d="M87.345 51.897c-.615-.474-1.533-.554-2.643-.236 0 0-8.771 1.674-9.949 1.922-7.523 1.35-11.124 1.399-12.878 1.628-.597.078-.317 1.14.129 1.126 6.658-.212 17.236-2.177 23.765-3.502.586 0 1.049 0 1.47-.113.534 0 .5-.712.106-.825Z"></path><path id="vector_7" fill="#000000" d="M96.983 60.206c-.055-.253-.376-.43-.621-.402-1.114.11-2.265.227-3.387.452-25.063 3.485-24.988 3.29-24.988 3.98 0 .253.336.589.589.589 1.78 0 .059.177 27.938-3.846.397 0 .63-.39.469-.773Z"></path><path id="vector_8" fill="#000000" d="M100.905 69.189c-6.164.587-16.482 2.738-21.065 3.51-3.633.612-5.599 1.019-7.028 1.585-.462.09-.242.832.187.832 1.984 0 8.956-1.665 13.945-2.378l6.993-1.241c2.142-.204 4.483-.613 7.103-1.243.493 0 .8-1.064-.134-1.064l-.001-.001Z"></path></g></g><g id="dollar sign"><path id="vector_9" fill="#000000" d="M153.521 67.063c-1.583-1.357-3.5-2.304-5.542-2.602a36.655 36.655 0 0 1-5.542-1.244c-.679-.226-1.244-.679-1.697-1.244-.673-1.12 1.101-4.519 4.75-5.203 1.34-.167 2.446.37 3.167 1.81 1.938 1.938 2.828.965 2.828-1.357-.271-2.705-3.132-4.273-5.788-4.243-.478-1.705-1.103-3.352-1.819-5-.632-.843-2.036-.39-2.036.453.125 1.504.445 3.55.764 5.286-4.811 2.052-7.406 7.805-4.016 10.856 1.55 1.395 3.62 2.262 5.655 2.488 1.923.226 3.733.68 5.542 1.357 3.299 1.776 3.948 5.767 1.81 8.144-3.11 3.628-7.682 1.142-9.254.28-4.725-2.593-3.857 1.426-2.51 2.774 1.74 1.491 4.54 2.524 7.689 2.521.093 1.473.172 2.952.232 4.44.113 2.148 3.506 2.261 3.393 0-.034-1.68-.107-3.362-.215-5.042 5.729-2.44 7.243-9.818 2.586-14.474h.003Z"></path><path id="vector_10" fill="#000000" d="M184.061 23.97c-.542-1.492-1.863-3.159-3.799-4.237.485-1.884.827-3.528.888-4.013 1.166-4.664-1.51-4.887-2.502-1.416-.234.468-.483 2.167-1.285 4.33-6.888-1.853-14.599 5.527-11.965 12.46 1.923 4.977 7.6 6.63 10.746 10.632 1.539 1.958 2.262 4.524 1.81 7.013-.565 2.036-2.27 3.463-4.411 3.846-4.45.796-8.501-2.654-9.84-6.673-1.889-5.665-3.721-2.356-3.959-.452 0 .905.226 1.81.565 2.601 1.355 2.983 2.717 4.982 5.298 6.667-.31 1.002-.683 2.446-1.372 4.508-1.599 3.198 1.863 6.234 3.167 1.018.406-1.318.812-2.727 1.217-4.064 2.334.792 5.39.638 8.09-.776 5.242-2.735 6.185-9.755 2.488-14.93-4.503-6.006-8.372-5.662-10.632-10.18-1.575-4.99 4.163-9.447 9.162-7.579 1.725.644 3.028 2.053 4.072 3.62 3.088 3.86 2.494-1.604 2.262-2.376Z"></path></g><g id="machine"><path id="vector_11" fill="#000000" d="M127.074 143.484c-.855-5.191-10.095-62.743-10.51-65.065-.902-5.042-2.256-6.674-7.309-5.834-1.34.223-40.51 8.455-40.611 8.484-.687.129-6.639 2.589-10.846 5.699-1.227.893-2.496 1.815-3.618 2.826-2.851 2.036-2.366 5.522-1.833 8.984 2.731 17.78 5.117 32.896 9.312 54.609.514 2.572 5.323 25.706 5.651 27.009.117 1.164.472 2.338.817 3.367.503 1.006 1.515 1.607 2.684 1.607 1.143.114 2.415.114 3.535.114 3.025 0 5.88.119 8.062-.115 2.429-.261 7.152-2.033 42.053-12.658 2.316-.705 5.659-1.957 5.65-7.498-.003-1.934-1.624-13.53-3.036-21.53l-.001.001Zm-2.809 27.626L85.95 182.713c-2.894.804-3.449 1.473-4.028-1.165-6.506-29.628-11.499-59.215-16.49-89.136-.404-2.42-.919-5.153.094-7.38.811-1.894 2.483-2.294 4.576-2.795 2.164-.518 36.574-7.667 39.271-8.273 2.34-.526 4.675-1.974 6.126 4.126.11.478 9.368 57.078 12.814 81.485.239 1.689.413 3.292.413 4.987 0 3.397.311 4.757-4.461 6.547v.001Z"></path><path id="vector_12" fill="#000000" d="m115.986 107.269-4.694-25.505a.65.65 0 0 0-.759-.521c-13.438 2.526-26.694 5.488-39.399 8.802a.65.65 0 0 0-.48.711c1.136 8.93 3.022 17.96 4.579 26.644a.648.648 0 0 0 .64.535c.188 0 23.32-4.034 39.695-9.936a.647.647 0 0 0 .419-.729l-.001-.001Zm-1.378-.308c-12.737 4.533-26.39 7.313-38.212 9.562-1.511-8.347-3.273-16.904-4.38-25.364 12.3-3.194 25.122-6.06 38.116-8.518l4.476 24.32Z"></path><path id="vector_13" fill="#000000" d="M123.793 161.459c-.479-3.877-7.614-46.833-8.159-48.854-.225-.837-.908-1.114-1.721-.869-21.967 6.624-33.563 8.973-36.848 10.001a.904.904 0 0 0-.627.999c3.435 23.241 8.326 49.638 8.769 51.101.196.392.667.458.932.275 5.446-.997 2.426-.396 33.831-8.624.631-.105 3.791-.653 4.063-1.125.248-.428-.099-2.392-.239-2.903l-.001-.001Zm-8.621 3.812c-.494-2.963-1-6.023-1.503-9.132 1.283-.374 6.344-1.82 7.576-2.181.641 3.878.455 3.538.812 5.557.349 1.987.231 2.218.67 3.918-.812.125-1.604.305-2.406.546-4.481 1.086-3.266.778-5.149 1.291v.001Zm-26.626-35.163c.339-.084 7.905-1.962 9.474-2.378l1.301 8.564a685.03 685.03 0 0 1-9.42 2.507 996.42 996.42 0 0 0-1.354-8.693h-.001Zm20.514 3.438a648.85 648.85 0 0 1-8.622 2.441 969.304 969.304 0 0 0-1.33-8.548 868.77 868.77 0 0 0 8.662-2.384l1.29 8.49v.001Zm1.6 10.805c-2.86.829-5.734 1.64-8.617 2.431-.462-3.144-.932-6.327-1.412-9.516a882.11 882.11 0 0 0 8.63-2.376l1.398 9.461h.001Zm-11.148-6.786c.433 2.886 1.364 9.229 1.407 9.524a612.67 612.67 0 0 1-9.417 2.485c-.469-3.185-.944-6.41-1.431-9.639 2.232-.557 7.888-1.958 9.44-2.37h.001Zm2.72 10.489c2.613-.699 5.45-1.475 8.626-2.359.462 3.14.927 6.284 1.409 9.446a612.803 612.803 0 0 1-8.555 2.405 930.373 930.373 0 0 1-1.48-9.491v-.001Zm-10.559 2.678c.39-.097 7.853-1.959 9.432-2.378.465 3.163.934 6.33 1.419 9.515a619.74 619.74 0 0 1-9.356 2.461 949.002 949.002 0 0 1-1.495-9.598Zm-4.217-20.356 1.323 8.713c-1.273.328-7.326 1.809-8.025 2.015l-1.486-8.947c1.154-.149 6.916-1.473 8.188-1.782v.001Zm16.462 28.447c2.888-.77 5.75-1.565 8.562-2.349.501 3.138.957 6.216 1.644 9.083-1.661.451-7.515 2.011-8.713 2.341-.491-2.946-.994-5.986-1.493-9.074v-.001Zm9.534-4.027a936.238 936.238 0 0 1-1.471-9.423c1.134-.329 6.205-1.777 7.54-2.168.474 2.908 1.488 9.338 1.488 9.338a611.915 611.915 0 0 1-7.557 2.253Zm-1.67-10.771-1.386-9.462c2.444-.709 4.919-1.416 7.374-2.236.503 3.24 1.021 6.399 1.522 9.474-.038.002.001.031-7.51 2.224Zm-1.584-10.81c-.449-3.049-.877-5.94-1.261-8.495 2.404-.698 4.821-1.388 7.239-2.192.247 1.479 1.137 7.074 1.373 8.484-.108.014-.87.307-7.351 2.203Zm-1.464-9.843c-.598-3.952-1.068-6.929-1.307-8.162 2.434-.665 4.997-1.347 7.187-2.055.256 2.651.835 5.348 1.331 8.053-.271.114-5.928 1.789-7.211 2.164Zm-1.166.339a617.22 617.22 0 0 1-8.665 2.447c-.349-2.142-.953-6.149-1.404-8.155a368.46 368.46 0 0 0 8.804-2.48c.325 2.638.724 4.656 1.265 8.188Zm-9.74 2.742c-3.151.859-6.31 1.693-9.467 2.501-.47-2.894-.959-6.568-1.351-8.275.463-.116 7.857-1.976 9.554-2.426.324 2.662.728 4.715 1.264 8.2Zm-10.545 2.775c-3.312.839-6.595 1.609-8.154 2.06-.463-2.94-.604-5.493-1.369-8.431 1.371-.193 2.21-.451 8.253-1.931.32 2.729.76 4.991 1.27 8.302Zm1.667 10.982c.449 2.992 1.393 9.418 1.427 9.65-.123.031-6.58 1.616-7.796 1.964-.583-3.264-1.14-6.57-1.681-9.848 1.236-.171 7.474-1.626 8.05-1.766Zm1.596 10.798c.47 3.2.943 6.402 1.434 9.623-5.658 1.415-6.027 1.455-7.501 1.965l-1.737-9.879c.909-.127 6.349-1.358 7.805-1.709h-.001Zm2.813 10.497c.763-.188 8.039-2.017 9.369-2.367.491 3.027.929 6.094 1.625 9.05-3.146.869-6.334 1.766-9.465 2.61a1912.55 1912.55 0 0 1-1.528-9.293h-.001Zm-5.621 1.267c.832-.151 3.835-.84 4.424-.979.496 3.019.941 6.215 1.661 9.291-.808.216-4.522 1.076-7.5 2.013-.128-1.506-.414-3.137-.871-4.959l-.832-4.739a20.966 20.966 0 0 0 3.119-.626l-.001-.001Z"></path><path id="vector_14" fill="#000000" d="M104.545 77.017c-6.025 5.854-10.18 13.46-11.537 21.717-3.436-1.145-6.041-.395-8.847.929a.524.524 0 0 0-.044.925l11.154 6.629c.342.513 1.244.242 1.244-.339l12.555-30.992c-1.244-1.131-3.262-.095-4.524 1.13h-.001Z"></path></g></g></svg>