<svg width="70" height="74" viewBox="0 0 70 74" fill="none" xmlns="http://www.w3.org/2000/svg">
<g clip-path="url(#clip0_3331_8792)">
<mask id="mask0_3331_8792" style="mask-type:alpha" maskUnits="userSpaceOnUse" x="-17" y="-12" width="136" height="135">
<circle cx="50.5732" cy="55.5333" r="67.4267" transform="rotate(35.4268 50.5732 55.5333)" fill="#D9D9D9"/>
</mask>
<g mask="url(#mask0_3331_8792)">
<path d="M110.242 52.9676C110.242 52.9676 86.351 47.815 49.8108 39.2258L31.3257 102.766L90.4408 119.822L110.242 52.9676Z" fill="#86BC40"/>
<path d="M118.539 -1.88154L63.0304 -14.1121L49.812 39.2265L110.504 54.5094L118.539 -1.88154Z" fill="#469E1D"/>
<path d="M63.2862 -8.44143L8.34388 -23.9422L-6.10856 27.2844L49.6956 38.9532L63.2862 -8.44143Z" fill="#86BC40"/>
<path d="M-24.2856 82.6874L-7.92195 26.5808L49.5967 39.0915L32.5164 99.6326L-24.2856 82.6874Z" fill="#90D539"/>
<path d="M106.171 56.2127L105.496 59.1226L47.9288 45.7688L48.6038 42.8589L106.171 56.2127Z" fill="#469E1D"/>
<path d="M100.488 61.8414L99.8142 64.7451L46.3972 52.354L47.0708 49.4503L100.488 61.8414Z" fill="#469E1D"/>
<path d="M101.524 69.0267L100.851 71.9304L44.8757 58.946L45.5493 56.0423L101.524 69.0267Z" fill="#469E1D"/>
<path d="M95.0412 74.9745L94.3677 77.8782L43.2242 66.0145L43.8978 63.1108L95.0412 74.9745Z" fill="#469E1D"/>
<path d="M97.6669 82.9359L96.9919 85.8457L41.6127 72.9994L42.2877 70.0896L97.6669 82.9359Z" fill="#469E1D"/>
<path d="M16.9905 -12.4179L5.12238 29.6487L2.35562 28.8681L14.2238 -13.1984L16.9905 -12.4179Z" fill="#469E1D"/>
<path d="M24.344 -14.4743L11.5764 30.7805L8.8096 29.9999L21.5772 -15.2549L24.344 -14.4743Z" fill="#469E1D"/>
<path d="M31.8148 -15.176L18.4485 32.2009L15.6817 31.4203L29.0481 -15.9566L31.8148 -15.176Z" fill="#469E1D"/>
<path d="M38.6215 -13.8519L25.2545 33.5276L22.4819 32.7454L35.8489 -14.6342L38.6215 -13.8519Z" fill="#469E1D"/>
<path d="M45.8276 -13.6346L32.0537 35.1868L29.287 34.4062L43.0609 -14.4152L45.8276 -13.6346Z" fill="#469E1D"/>
<path d="M52.1155 -10.4537L38.8892 36.427L36.1224 35.6464L49.3487 -11.2342L52.1155 -10.4537Z" fill="#469E1D"/>
<path d="M58.0461 -6.05232L45.6 38.0625L42.8274 37.2803L55.2735 -6.83455L58.0461 -6.05232Z" fill="#469E1D"/>
<path d="M33.0756 99.0005L61.7985 -3.23195" stroke="#9ADB67" stroke-width="2.80141" stroke-miterlimit="10"/>
<path d="M41.6043 42.8988C41.798 42.2124 42.5116 41.8129 43.1983 42.0067C43.8849 42.2004 44.2846 42.9139 44.0909 43.6003C43.8972 44.2868 43.1836 44.6862 42.4969 44.4925C41.8103 44.2988 41.4107 43.5853 41.6043 42.8988Z" fill="#288B18"/>
<path d="M39.4292 50.6234C39.6229 49.937 40.3365 49.5376 41.0232 49.7313C41.7098 49.925 42.1095 50.6385 41.9158 51.325C41.7222 52.0114 41.0085 52.4108 40.3219 52.2171C39.6352 52.0234 39.2356 51.3099 39.4292 50.6234Z" fill="#288B18"/>
<path d="M37.2448 58.3449C37.4385 57.6584 38.1521 57.259 38.8388 57.4527C39.5254 57.6464 39.9251 58.3599 39.7314 59.0464C39.5377 59.7328 38.8241 60.1323 38.1374 59.9385C37.4508 59.7448 37.0512 59.0313 37.2448 58.3449Z" fill="#288B18"/>
<path d="M36.0983 67.1005C36.292 66.414 37.0056 66.0146 37.6923 66.2083C38.3789 66.402 38.7786 67.1156 38.5849 67.802C38.3912 68.4884 37.6776 68.8879 36.991 68.6942C36.3043 68.5004 35.9047 67.7869 36.0983 67.1005Z" fill="#288B18"/>
<path d="M32.3353 74.6273C32.529 73.9409 33.2426 73.5415 33.9293 73.7352C34.6159 73.9289 35.0156 74.6424 34.8219 75.3289C34.6282 76.0153 33.9146 76.4147 33.228 76.221C32.5413 76.0273 32.1417 75.3138 32.3353 74.6273Z" fill="#288B18"/>
<path d="M27.3225 40.9125C27.5161 40.226 28.2298 39.8266 28.9164 40.0203C29.6031 40.2141 30.0027 40.9276 29.8091 41.614C29.6154 42.3005 28.9018 42.6999 28.2151 42.5062C27.5285 42.3124 27.1288 41.5989 27.3225 40.9125Z" fill="#288B18"/>
<path d="M25.1401 48.6427C25.3338 47.9563 26.0474 47.5568 26.7341 47.7506C27.4207 47.9443 27.8204 48.6578 27.6267 49.3442C27.4331 50.0307 26.7194 50.4301 26.0328 50.2364C25.3461 50.0427 24.9465 49.3292 25.1401 48.6427Z" fill="#288B18"/>
<path d="M22.964 56.3605C23.1577 55.674 23.8713 55.2746 24.5579 55.4683C25.2446 55.6621 25.6442 56.3756 25.4506 57.062C25.2569 57.7485 24.5433 58.1479 23.8566 57.9542C23.17 57.7604 22.7703 57.0469 22.964 56.3605Z" fill="#288B18"/>
<path d="M20.7811 64.0892C20.9748 63.4028 21.6884 63.0034 22.3751 63.1971C23.0617 63.3908 23.4614 64.1043 23.2677 64.7908C23.074 65.4772 22.3604 65.8766 21.6738 65.6829C20.9871 65.4892 20.5875 64.7757 20.7811 64.0892Z" fill="#288B18"/>
<path d="M18.5983 71.8139C18.792 71.1274 19.5056 70.728 20.1923 70.9217C20.8789 71.1154 21.2785 71.8289 21.0849 72.5154C20.8912 73.2018 20.1776 73.6013 19.4909 73.4075C18.8043 73.2138 18.4046 72.5003 18.5983 71.8139Z" fill="#288B18"/>
<path d="M33.8126 45.8993C34.0063 45.2129 34.7199 44.8134 35.4066 45.0072C36.0932 45.2009 36.4929 45.9144 36.2992 46.6008C36.1055 47.2873 35.3919 47.6867 34.7053 47.493C34.0186 47.2993 33.619 46.5857 33.8126 45.8993Z" fill="#469E1D"/>
<path d="M30.1086 57.6576C30.3022 56.9712 31.0159 56.5717 31.7025 56.7655C32.3892 56.9592 32.7888 57.6727 32.5951 58.3591C32.4015 59.0456 31.6878 59.445 31.0012 59.2513C30.3145 59.0576 29.9149 58.344 30.1086 57.6576Z" fill="#469E1D"/>
<path d="M28.5723 65.2191C28.766 64.5327 29.4796 64.1333 30.1663 64.327C30.8529 64.5207 31.2526 65.2342 31.0589 65.9207C30.8652 66.6071 30.1516 67.0065 29.465 66.8128C28.7783 66.6191 28.3787 65.9056 28.5723 65.2191Z" fill="#469E1D"/>
<path d="M26.6908 74.6273C26.8845 73.9409 27.5981 73.5415 28.2848 73.7352C28.9714 73.9289 29.3711 74.6424 29.1774 75.3289C28.9837 76.0153 28.2701 76.4147 27.5835 76.221C26.8968 76.0273 26.4972 75.3138 26.6908 74.6273Z" fill="#469E1D"/>
<path d="M19.8626 42.4118C20.0563 41.7253 20.7699 41.3259 21.4566 41.5196C22.1432 41.7133 22.5429 42.4268 22.3492 43.1133C22.1555 43.7997 21.4419 44.1992 20.7552 44.0054C20.0686 43.8117 19.669 43.0982 19.8626 42.4118Z" fill="#469E1D"/>
<path d="M17.6875 50.1349C17.8812 49.4485 18.5948 49.049 19.2815 49.2428C19.9681 49.4365 20.3678 50.15 20.1741 50.8364C19.9804 51.5229 19.2668 51.9223 18.5801 51.7286C17.8935 51.5349 17.4938 50.8213 17.6875 50.1349Z" fill="#469E1D"/>
<path d="M15.5042 57.8583C15.6978 57.1718 16.4115 56.7724 17.0981 56.9661C17.7848 57.1599 18.1844 57.8734 17.9907 58.5598C17.7971 59.2463 17.0834 59.6457 16.3968 59.452C15.7101 59.2582 15.3105 58.5447 15.5042 57.8583Z" fill="#469E1D"/>
<path d="M13.328 65.5846C13.5217 64.8982 14.2353 64.4987 14.922 64.6925C15.6086 64.8862 16.0083 65.5997 15.8146 66.2861C15.6209 66.9726 14.9073 67.372 14.2206 67.1783C13.534 66.9846 13.1343 66.271 13.328 65.5846Z" fill="#469E1D"/>
<path d="M11.1451 73.3102C11.3388 72.6237 12.0524 72.2243 12.7391 72.418C13.4257 72.6118 13.8254 73.3253 13.6317 74.0117C13.4381 74.6982 12.7244 75.0976 12.0378 74.9039C11.3511 74.7101 10.9515 73.9966 11.1451 73.3102Z" fill="#469E1D"/>
<path d="M7.59512 39.1097C7.78879 38.4233 8.50243 38.0239 9.18908 38.2176C9.87573 38.4113 10.2754 39.1248 10.0817 39.8113C9.88805 40.4977 9.17441 40.8972 8.48775 40.7034C7.8011 40.5097 7.40146 39.7962 7.59512 39.1097Z" fill="#469E1D"/>
<path d="M5.41174 46.8385C5.60541 46.1521 6.31905 45.7526 7.0057 45.9464C7.69235 46.1401 8.09199 46.8536 7.89833 47.54C7.70466 48.2265 6.99103 48.6259 6.30437 48.4322C5.61772 48.2385 5.21808 47.525 5.41174 46.8385Z" fill="#469E1D"/>
<path d="M3.23663 54.5617C3.4303 53.8752 4.14394 53.4758 4.83059 53.6695C5.51724 53.8632 5.91688 54.5767 5.72322 55.2632C5.52955 55.9496 4.81592 56.3491 4.12926 56.1553C3.44261 55.9616 3.04297 55.2481 3.23663 54.5617Z" fill="#469E1D"/>
<path d="M1.04602 62.2904C1.23968 61.604 1.95332 61.2045 2.63997 61.3983C3.32662 61.592 3.72627 62.3055 3.53261 62.992C3.33894 63.6784 2.6253 64.0778 1.93865 63.8841C1.252 63.6904 0.852354 62.9769 1.04602 62.2904Z" fill="#469E1D"/>
<path d="M-1.12958 70.0057C-0.935915 69.3193 -0.222275 68.9199 0.464376 69.1136C1.15103 69.3073 1.55067 70.0208 1.35701 70.7073C1.16334 71.3937 0.449704 71.7932 -0.236946 71.5994C-0.923597 71.4057 -1.32324 70.6922 -1.12958 70.0057Z" fill="#469E1D"/>
<path d="M14.4161 37.2262C14.6097 36.5398 15.3234 36.1403 16.01 36.3341C16.6967 36.5278 17.0963 37.2413 16.9027 37.9277C16.709 38.6142 15.9954 39.0136 15.3087 38.8199C14.6221 38.6262 14.2224 37.9126 14.4161 37.2262Z" fill="#288B18"/>
<path d="M12.2332 44.953C12.4269 44.2666 13.1405 43.8671 13.8272 44.0609C14.5138 44.2546 14.9135 44.9681 14.7198 45.6545C14.5261 46.341 13.8125 46.7404 13.1258 46.5467C12.4392 46.353 12.0396 45.6395 12.2332 44.953Z" fill="#288B18"/>
<path d="M10.0504 52.6764C10.244 51.99 10.9577 51.5905 11.6443 51.7843C12.331 51.978 12.7306 52.6915 12.5369 53.3779C12.3433 54.0644 11.6296 54.4638 10.943 54.2701C10.2563 54.0764 9.85669 53.3628 10.0504 52.6764Z" fill="#288B18"/>
<path d="M7.87476 60.4066C8.06842 59.7202 8.78206 59.3208 9.46871 59.5145C10.1554 59.7082 10.555 60.4217 10.3613 61.1082C10.1677 61.7946 9.45404 62.194 8.76739 62.0003C8.08074 61.8066 7.68109 61.0931 7.87476 60.4066Z" fill="#288B18"/>
<path d="M5.69861 68.1244C5.89228 67.438 6.60591 67.0385 7.29256 67.2323C7.97921 67.426 8.37886 68.1395 8.18519 68.8259C7.99153 69.5124 7.27789 69.9118 6.59124 69.7181C5.90459 69.5244 5.50495 68.8108 5.69861 68.1244Z" fill="#288B18"/>
<path d="M2.10465 33.799C2.29832 33.1125 3.01196 32.7131 3.69861 32.9068C4.38526 33.1005 4.7849 33.8141 4.59123 34.5005C4.39757 35.1869 3.68394 35.5864 2.99729 35.3926C2.31063 35.1989 1.91099 34.4854 2.10465 33.799Z" fill="#288B18"/>
<path d="M-0.0787285 41.5297C0.114936 40.8432 0.828575 40.4438 1.51523 40.6375C2.20188 40.8313 2.60152 41.5448 2.40785 42.2312C2.21419 42.9177 1.50056 43.3171 0.813905 43.1234C0.127254 42.9296 -0.272393 42.2161 -0.0787285 41.5297Z" fill="#288B18"/>
<path d="M-2.25384 49.2548C-2.06017 48.5683 -1.34653 48.1689 -0.659884 48.3626C0.0267671 48.5563 0.426406 49.2699 0.232741 49.9563C0.0390764 50.6427 -0.674554 51.0422 -1.3612 50.8485C-2.04786 50.6547 -2.4475 49.9412 -2.25384 49.2548Z" fill="#288B18"/>
<path d="M111.441 54.1796L-10.339 25.6656" stroke="#9ADB67" stroke-width="2.80141" stroke-miterlimit="10"/>
</g>
<g clip-path="url(#clip1_3331_8792)">
<path d="M31.0835 49.9414L27.0645 53.647L20.3832 47.6461C20.2616 47.535 20.3103 47.3382 20.4675 47.2919L22.6067 46.6992C23.1832 46.5403 23.8062 46.5878 24.3511 46.8387L31.0835 49.9414Z" fill="white"/>
<path d="M29.0412 49.0525L25.5715 52.2518L27.3067 53.8076L31.3192 50.1052L29.0412 49.0525Z" fill="#A3BECC"/>
<path d="M33.2058 54.1548L27.8353 55.1758L28.686 64.2021C28.6995 64.3267 28.8472 64.3918 28.9486 64.3162L31.0979 62.6351C31.3564 62.4311 31.5326 62.1454 31.5973 61.8338L33.2025 54.1646L33.2058 54.1548Z" fill="white"/>
<path d="M56.6517 43.3849L52.7726 67.1931C52.5598 68.5149 51.8943 69.7198 50.8968 70.6077L48.9149 72.3769C48.9149 72.3769 47.5762 51.458 45.8482 48.9383L56.6517 43.3849Z" fill="white"/>
<path d="M53.5009 37.0247L32.4505 26.1518C31.0092 25.4083 29.3629 25.1866 27.7803 25.5154L25.6047 25.9705C25.6047 25.9705 41.6105 39.5059 42.6051 42.3947L53.5009 37.0247Z" fill="white"/>
<path d="M51.1821 35.8612L41.4748 40.6413C42.1654 41.4426 42.6327 42.0937 42.7781 42.513L53.6772 37.1494L51.1821 35.8612Z" fill="#A3BECC"/>
<path d="M56.2482 46.3557L46.6265 51.306C46.3942 50.274 46.1496 49.5108 45.8994 49.1443L56.6996 43.5843L56.2482 46.3557Z" fill="#E4EBEF"/>
<path d="M30.2896 55.8937L24.8683 56.3248C24.4258 56.3588 24.1589 55.8448 24.4366 55.4998L27.7532 51.4912C28.6061 50.4627 29.5939 49.6208 30.7002 48.9818L42.4576 42.1931L53.1409 37.0367C53.1409 37.0367 58.396 34.5636 58.4156 34.5537C60.3407 33.5846 63.6173 31.7628 66.9221 33.0291C67.7261 33.3383 68.2701 34.4679 68.0396 35.2815C67.6337 36.7251 66.2499 38.9975 61.764 41.0095L56.7353 43.541L46.1347 48.9758L32.8284 55.2147C32.0394 55.5873 31.181 55.806 30.283 55.8806L30.2896 55.8937Z" fill="white"/>
<path d="M53.0828 37.0195C53.0828 37.0195 58.3378 34.5464 58.3575 34.5365C60.2825 33.5675 63.5592 31.7456 66.864 33.0119C67.4941 33.2528 67.9583 33.9957 68.0225 34.6938C67.9503 34.6481 67.8813 34.609 67.7993 34.5764C64.4945 33.3101 61.2211 35.1221 59.2928 36.1011C59.2731 36.1109 54.0181 38.584 54.0181 38.584L43.3348 43.7404L31.5774 50.5291C30.471 51.1681 29.4833 52.0101 28.6304 53.0385L26.0065 56.206L24.8003 56.3044C24.3578 56.3384 24.0909 55.8244 24.3686 55.4794L27.6852 51.4708C28.5381 50.4423 29.5259 49.6004 30.6322 48.9614L42.3896 42.1727L53.0729 37.0163L53.0828 37.0195Z" fill="#C9D6DE"/>
</g>
</g>
<defs>
<clipPath id="clip0_3331_8792">
<rect width="90.3184" height="90.3184" rx="45.1592" fill="white"/>
</clipPath>
<clipPath id="clip1_3331_8792">
<rect width="51.9301" height="48.8146" fill="white" transform="matrix(-0.449645 -0.893208 -0.893208 0.449645 79.462 56.9985)"/>
</clipPath>
</defs>
</svg>
