<svg width="70" height="76" viewBox="0 0 70 76" fill="none" xmlns="http://www.w3.org/2000/svg">
<g clip-path="url(#clip0_3331_8973)">
<circle cx="45" cy="45" r="45" fill="#FFD43E"/>
<path d="M78.3968 62.9525C35.427 48.423 -4.2816 63.1265 -18.7646 72.2944L17.1989 85.728L62.8205 83.7547L78.3968 62.9525Z" fill="#469E1D"/>
<path d="M96.7499 64.1271C37.3499 62.3271 11.9999 72.3771 6.74991 77.6271L24.7499 92.2522L80.9999 100.127L96.7499 64.1271Z" fill="#898BB3"/>
<g clip-path="url(#clip1_3331_8973)">
<path d="M27.8684 29.3247L26.9724 31.1169L27.9184 31.5899L28.1856 31.0554C28.5822 30.2622 29.4765 29.8509 30.3368 30.0659L34.5405 31.1169L35.4866 28.2788H29.5607C28.8441 28.2788 28.1889 28.6837 27.8684 29.3247Z" fill="#F4F8FF"/>
<path d="M30.7516 30.1729L34.5357 31.1189V30.6459L30.7516 30.1729Z" fill="#9FAAB7"/>
<path d="M28.3709 32.1528L27.7591 36.7935C27.7591 37.1662 27.3232 37.3607 26.9747 37.2665C26.2901 37.0816 25.3602 37.0636 25.1424 36.3639C24.8942 35.5675 25.4843 32.9143 25.7365 31.8599C25.8174 31.5222 26.1409 31.2465 26.5757 31.1477C26.9072 31.072 27.3099 31.0464 27.6935 31.1938C28.1587 31.3728 28.4173 31.7592 28.3709 32.1528Z" fill="#F4F8FF"/>
<path d="M25.4818 36.3108C25.2973 35.53 25.7361 32.9286 25.9231 31.8947C25.9833 31.5637 26.2234 31.2933 26.5464 31.1965C26.6538 31.1642 26.771 31.141 26.8926 31.1378C26.648 31.0558 26.4008 31.0835 26.1917 31.1461C25.8688 31.2436 25.628 31.5133 25.5685 31.8444C25.3808 32.8782 24.9426 35.4796 25.1271 36.2605C25.3491 37.2017 26.5017 37.2665 26.9747 37.2665C26.4602 37.0652 25.6293 36.9362 25.4818 36.3108Z" fill="#F8F8F8"/>
<path d="M39.272 73.2113C43.2535 74.2622 53.9202 76.2589 70.9 74.355C70.9084 74.3542 70.9161 74.3527 70.9238 74.3513L120.275 65.3087C120.294 66.146 120.629 64.643 120.219 64.6367L100.346 64.3338C100.33 64.3342 100.314 64.3346 100.298 64.3362L40.2181 72.2654C39.272 72.7385 38.9113 73.1161 39.272 73.2113Z" fill="#3E4B76"/>
<path d="M76.7178 66.3419C76.7178 70.4256 74.4454 73.4904 71.6424 73.4904C67.1017 73.4904 66.5671 70.4256 66.5671 66.3419C66.5671 62.2582 67.3916 58.9482 71.6424 58.9482C74.4454 58.9482 76.7178 62.2588 76.7178 66.3419Z" fill="#2E3349"/>
<path d="M53.2613 68.9035C52.493 70.5529 50.8174 71.6958 48.8726 71.6958C46.7673 71.6958 44.9765 70.3082 44.3131 68.436C46.7601 68.6187 51.0161 68.826 53.2613 68.9035Z" fill="#2E3349"/>
<path d="M123.208 61.2311L119.038 63.1374L113.244 63.6847V58.6839C113.244 57.5707 112.316 56.6672 111.173 56.6672C110.601 56.6672 110.084 56.8931 109.709 57.2577C109.497 57.4642 109.332 57.7133 109.227 57.9908C109.227 58.0328 108.289 60.3282 108.183 62.1371C108.14 62.858 108.154 63.5427 108.214 64.1603L94.9093 65.4174L88.478 66.024L79.3066 66.8907C79.4282 65.0289 79.6451 58.4626 76.7178 57.2745C73.3769 55.9193 69.4808 57.1041 69.1455 67.8497L65.7568 68.1698L57.0002 68.9971L56.6442 69.03C56.6442 69.03 56.4352 69.0236 56.0708 69.0113C54.3039 68.9539 48.8972 68.768 46.0871 68.5525C42.6984 68.2937 28.8379 66.6029 28.0115 66.3874C27.1311 66.1551 27.6801 61.3319 27.6646 60.4515L28.4166 51.6555L28.4464 51.3109C29.5337 41.8237 33.4434 31.2524 33.4434 31.2524L34.3126 28.8265L34.3941 28.7123L35.1268 27.6907C35.4504 27.239 35.9099 26.9002 36.4393 26.7285C45.5642 23.7787 56.342 24.435 60.9229 24.9093C62.3383 25.0565 63.1622 25.1855 63.1622 25.1855L122.166 37.4031C122.279 37.7245 122.385 38.0562 122.484 38.3976C122.809 39.5134 123.06 40.7247 123.253 41.9896C123.271 42.0986 123.286 42.209 123.303 42.32C123.55 44.0347 123.693 45.839 123.761 47.6228C124.033 54.5744 123.209 61.2324 123.209 61.2324L123.208 61.2311Z" fill="#D7E5FF"/>
<path d="M51.9405 34.0581C52.2983 34.0581 52.5883 33.6508 52.5883 33.1482C52.5883 32.6457 52.2983 32.2383 51.9405 32.2383C51.5827 32.2383 51.2926 32.6457 51.2926 33.1482C51.2926 33.6508 51.5827 34.0581 51.9405 34.0581Z" stroke="#1D1D1B" stroke-width="0.332978" stroke-miterlimit="10"/>
<path d="M122.25 37.6508C122.363 37.9863 122.088 38.3168 121.741 38.2466C110.546 35.9811 65.0316 26.7721 64.4216 26.6587C63.7266 26.5283 60.7287 26.3121 60.4679 26.9613C60.3326 27.2988 60.1022 28.5637 59.765 31.1238C59.7133 31.5097 59.6602 31.9246 59.6039 32.3712C59.5864 32.5061 59.5689 32.6448 59.5521 32.7862C59.2751 35.0262 58.9379 37.9909 58.5367 41.8216C58.5244 41.9345 58.5127 42.0488 58.5004 42.1643C57.6869 50.1601 57.208 62.7261 57.0397 67.7746C57.0285 68.1053 57.0185 68.404 57.0102 68.6671C57.0043 68.855 56.8595 69.0093 56.6722 69.0266C56.6536 69.0283 56.6349 69.0286 56.6162 69.0279C56.6068 69.0275 56.5952 69.027 56.5815 69.0266C56.5705 69.0266 56.5569 69.0266 56.542 69.026C56.4462 69.0234 56.2863 69.0182 56.0708 69.0111C54.304 68.953 48.8973 68.7678 46.0871 68.5516C42.6977 68.2929 28.8373 66.6027 28.0115 66.3865C27.131 66.1543 27.6801 61.3305 27.6646 60.45L28.3163 52.8266L28.4166 51.654L28.425 51.5598L28.4464 51.3094C29.533 41.8216 33.4428 31.2503 33.4428 31.2503L33.4635 31.1915L34.2646 28.9572C34.296 28.8695 34.3394 28.7866 34.3935 28.7108L34.5961 28.4269L35.1255 27.6893C35.4497 27.2375 35.9086 26.8987 36.438 26.7271C45.5635 23.7785 56.3414 24.4355 60.9222 24.9091C61.0083 24.9175 61.0931 24.9278 61.1746 24.9362C61.2607 24.9459 61.3442 24.9543 61.4245 24.9633C61.6225 24.9853 61.805 25.0059 61.9707 25.0272C62.0374 25.0343 62.1014 25.0427 62.1629 25.0505C62.2244 25.0576 62.2826 25.0653 62.339 25.0724C62.3856 25.0789 62.4302 25.0847 62.4729 25.0898C62.5079 25.0943 62.5409 25.0982 62.5732 25.1034C62.6405 25.1118 62.702 25.1202 62.759 25.1279C62.7823 25.1298 62.8043 25.1337 62.8263 25.1376C62.8451 25.1402 62.8625 25.1421 62.8794 25.1447C62.9473 25.1537 63.0036 25.1621 63.0483 25.1679C63.069 25.1718 63.0878 25.1744 63.102 25.177C63.1234 25.1795 63.1389 25.1815 63.1492 25.1828C63.1577 25.1841 63.1615 25.1853 63.1615 25.1853L121.904 37.349C122.066 37.3825 122.198 37.4942 122.25 37.6508Z" fill="#F1F6FF"/>
<path d="M123.759 47.6208L123.229 47.5769L119.949 47.3033L119.588 47.2723L114.631 46.8574L114.246 46.8258L108.509 46.3456L108.104 46.3127L101.92 45.7945L101.356 45.748L94.1125 45.1414L93.3248 45.0762L84.5203 44.3399L83.767 44.2773L73.8881 43.4513L72.8513 43.3642L66.3463 42.8201L58.4997 42.1632C58.512 42.0477 58.523 41.9334 58.5353 41.8205C58.9365 37.9898 59.2737 35.0251 59.5507 32.7851C59.5682 32.6437 59.585 32.505 59.6025 32.3701C60.7532 32.5579 63.2216 32.9154 66.5651 33.3904C68.2911 33.6356 70.2509 33.9131 72.3815 34.2139C72.7523 34.2655 73.129 34.3197 73.5089 34.372C76.552 34.8031 79.9064 35.2767 83.4104 35.7762C83.6822 35.8156 83.956 35.855 84.2304 35.8943H84.2317C87.069 36.2996 89.9931 36.7191 92.919 37.145C93.207 37.1869 93.495 37.2295 93.7831 37.2715C96.234 37.629 98.6804 37.9897 101.071 38.3466C101.278 38.3776 101.483 38.4092 101.689 38.4402C103.819 38.7596 105.901 39.0759 107.902 39.3869C108.049 39.4089 108.198 39.4321 108.345 39.456C110.342 39.7651 112.252 40.0684 114.04 40.3607C114.181 40.384 114.323 40.4059 114.463 40.4298C116.248 40.7234 117.905 41.0028 119.397 41.2681C119.531 41.2913 119.665 41.3145 119.796 41.3378C120.889 41.5327 121.889 41.7198 122.776 41.8941C122.937 41.9257 123.097 41.958 123.25 41.9883C123.268 42.0973 123.283 42.2077 123.299 42.3187C123.546 44.0334 123.69 45.8377 123.758 47.6215L123.759 47.6208Z" fill="#6EA6FC"/>
<path d="M66.5638 33.3898L66.3444 42.8195L66.3185 43.9282L65.7535 68.1679L56.9969 68.9952C57.0804 66.328 57.3419 58.6729 57.7897 51.3102C57.9891 48.0513 58.224 44.8497 58.4978 42.1632C58.5101 42.0477 58.5211 41.9334 58.5334 41.8205C58.9592 37.749 59.3139 34.6553 59.6006 32.3701C60.7513 32.5579 63.2197 32.9154 66.5632 33.3904L66.5638 33.3898Z" fill="#CDDDFA"/>
<path d="M66.3426 42.8218L66.3167 43.9305C63.9803 46.8668 60.09 49.7405 57.7879 51.3126C57.9873 48.0536 58.2222 44.8521 58.496 42.1655L66.3426 42.8218Z" fill="#F2F5FF"/>
<path d="M66.5657 33.3904L66.3463 42.8201L65.1309 42.7517L65.237 34.9825C62.8353 34.6095 62.185 34.3758 61.3591 34.2287C61.152 36.0208 60.0743 38.8455 59.7688 42.0367C59.7617 42.1128 59.7539 42.1903 59.7468 42.2677L58.4997 42.1632C58.512 42.0477 58.523 41.9334 58.5353 41.8205C58.9611 37.749 59.3158 34.6553 59.6025 32.3701C60.7532 32.5579 63.2223 32.9154 66.5657 33.3904Z" fill="#233B68"/>
<path d="M65.2241 42.7516L59.7478 42.2676C59.7549 42.1901 59.7627 42.1127 59.7698 42.0365C60.0753 38.8453 60.5707 34.1139 60.7778 32.3218C61.6036 32.4689 63.0693 32.7721 65.4711 33.1457L65.2241 42.7516Z" fill="#6EA6FC"/>
<path d="M76.7155 66.1115C76.7155 68.1579 76.2612 70.0042 75.5311 71.3085C74.8529 72.5262 73.9332 73.2735 72.9216 73.2735C71.8369 73.2735 70.8584 72.4152 70.1665 71.0381C69.6455 70.001 69.2876 68.669 69.1692 67.1899C69.1407 66.8375 69.1258 66.4781 69.1258 66.1109C69.1258 64.4427 69.4287 62.9074 69.9361 61.6897C69.9374 61.6871 69.9387 61.6845 69.9387 61.6832C70.6331 60.0176 71.7114 58.9482 72.9216 58.9482C75.0166 58.9482 76.7155 62.1543 76.7155 66.1109V66.1115Z" fill="#4B4D59"/>
<path d="M79.2988 66.8897C79.2977 66.9064 79.2955 66.9296 79.2924 66.9587C79.1154 68.606 77.6592 69.8127 76.0024 69.8127C76.4141 68.9887 76.71 68.1578 76.71 66.1121C76.71 62.1562 75.0111 58.9495 72.9161 58.9495C71.7059 58.9495 70.6276 60.0188 69.9332 61.6844C71.3046 56.6824 74.1678 56.2429 76.71 57.2741C79.6373 58.4622 79.4205 65.0279 79.2988 66.8897Z" fill="#2E3349"/>
<path d="M33.4832 57.6299L42.9478 57.8539C43.2636 57.8539 43.4902 58.1579 43.3989 58.4599L42.5783 61.4877C42.5162 61.6936 42.3214 61.8311 42.1059 61.8214L33.8314 61.4509C33.6023 61.4406 33.414 61.2677 33.3848 61.0412L33.0153 58.1597C32.9791 57.879 33.1991 57.6299 33.4826 57.6299H33.4832Z" fill="#5C80C2"/>
<path d="M42.4789 64.749L42.2951 66.6831C42.2698 66.9458 42.0368 67.14 41.7734 67.1161C39.1859 66.8838 36.4942 66.5695 34.1209 66.2649C33.8925 66.2359 33.7171 66.0494 33.7022 65.8203L33.5915 64.1534C33.5721 63.8623 33.8154 63.6216 34.1073 63.6429L42.0349 64.225C42.3041 64.245 42.5041 64.4812 42.4789 64.749Z" fill="#3D5582"/>
<path d="M47.6311 60.7236C48.2119 60.7143 48.6694 59.8826 48.653 58.8658C48.6367 57.8491 48.1526 57.0325 47.5718 57.0418C46.991 57.0511 46.5335 57.8828 46.5499 58.8995C46.5663 59.9162 47.0503 60.7329 47.6311 60.7236Z" fill="#9EAAB7"/>
<path d="M51.1094 61.0496C51.7487 61.0394 52.2524 60.1237 52.2344 59.0043C52.2164 57.885 51.6834 56.9859 51.0441 56.9961C50.4047 57.0063 49.901 57.9221 49.919 59.0414C49.937 60.1608 50.47 61.0599 51.1094 61.0496Z" fill="#9EAAB7"/>
<path d="M31.2577 59.5111C31.5998 59.5111 31.8771 58.8362 31.8771 58.0036C31.8771 57.171 31.5998 56.4961 31.2577 56.4961C30.9156 56.4961 30.6383 57.171 30.6383 58.0036C30.6383 58.8362 30.9156 59.5111 31.2577 59.5111Z" fill="#9EAAB7"/>
<path d="M29.3012 59.1387C29.582 59.1387 29.8097 58.5845 29.8097 57.9009C29.8097 57.2173 29.582 56.6631 29.3012 56.6631C29.0203 56.6631 28.7926 57.2173 28.7926 57.9009C28.7926 58.5845 29.0203 59.1387 29.3012 59.1387Z" fill="#9EAAB7"/>
<path d="M57.9452 31.0345C57.9193 31.2933 57.8876 31.6547 57.8481 32.0961C57.5401 35.5758 56.799 44.144 55.603 48.8408C55.1254 50.7187 54.574 51.9772 53.9488 52.0456C51.5593 52.3056 28.7766 51.9978 28.4148 51.6538L28.4446 51.3092C28.5384 50.4916 28.6523 49.6668 28.7843 48.8408C29.7849 42.5448 31.7524 36.2147 32.7801 33.1493C33.1827 31.9503 33.4409 31.2501 33.4409 31.2501L34.3101 28.8242L34.3917 28.71C34.6376 28.4364 34.8855 28.2325 35.1366 28.1137C35.2447 28.0621 35.3508 28.0072 35.4518 27.9433C35.9579 27.622 37.9681 26.6288 43.8699 26.268C50.9522 25.835 57.0346 25.6614 57.4695 26.268C57.9038 26.8747 58.2513 27.9156 57.9472 31.0345H57.9452Z" fill="#233B68"/>
<path d="M57.4017 32.1142C57.1363 36.9072 56.1047 43.9691 54.7255 48.8402C54.3735 50.0844 53.9981 51.186 53.6085 52.0701C50.2469 52.2643 32.1894 52.0314 28.9158 51.7358C28.9184 51.7119 28.921 51.6868 28.9236 51.6616C28.9916 51.0169 29.1055 50.0295 29.2776 48.8402C29.5488 46.9738 29.9637 44.6125 30.5701 42.297C31.271 39.6228 32.1583 36.0114 33.1459 33.1326C33.999 30.6493 34.9257 28.7113 35.8713 28.3906C37.8614 27.7143 47.8393 25.8854 56.3448 26.8392C56.838 26.8947 57.2431 27.2625 57.3305 27.7517C57.493 28.6597 57.5078 30.2079 57.4017 32.1142Z" fill="#71A7F9"/>
<path d="M57.7172 30.6431L33.6882 31.662C34.5412 29.1788 34.9268 28.7113 35.8724 28.3906C37.8632 27.7143 47.8404 25.8854 56.3459 26.8392C56.8397 26.8947 57.2449 27.2625 57.3323 27.7511C57.4947 28.6597 57.8233 28.7367 57.7172 30.6431Z" fill="#3D5582"/>
<path d="M61.464 29.5133V26.7893C61.464 26.7893 56.2444 25.5608 54.1369 26.0604C53.7698 26.1475 53.5168 26.4542 53.3733 26.8031C52.5078 28.9078 52.4705 29.8218 52.4705 29.8218H53.5231L55.1307 27.7928L61.464 29.5133Z" fill="#D7E5FF"/>
<path d="M60.5858 29.8232L60.5188 28.5681L55.3533 27.8086L60.5858 29.8232Z" fill="#9FAAB7"/>
<path d="M53.6059 29.2239C54.0337 29.2284 54.3814 29.5708 54.3932 29.9963C54.4373 31.5833 54.4474 36.194 53.585 36.5493C52.486 37.0024 50.5156 36.9918 50.6296 34.9916C50.7363 33.1185 50.1532 29.1857 53.6059 29.2239Z" fill="#F8F8F8"/>
<path d="M51.0769 35.4343C51.1707 33.4925 50.6811 29.4939 53.4602 29.2372C53.4226 29.2294 53.3839 29.2245 53.3443 29.2239C50.1914 29.1828 50.7234 33.4174 50.6265 35.4343C50.5692 36.6219 52.0369 36.8701 52.6848 36.7726C52.2652 36.6903 51.0342 36.3283 51.0769 35.4343Z" fill="white"/>
<path d="M47.6261 60.3185C48.2069 60.3092 48.6655 59.5465 48.6505 58.6149C48.6355 57.6834 48.1526 56.9358 47.5718 56.9451C46.991 56.9544 46.5324 57.7171 46.5474 58.6486C46.5624 59.5802 47.0454 60.3278 47.6261 60.3185Z" fill="#FFDF6F"/>
<path d="M51.1039 60.6047C51.7433 60.5945 52.2482 59.7548 52.2317 58.7292C52.2152 57.7035 51.6835 56.8804 51.0441 56.8906C50.4047 56.9009 49.8998 57.7406 49.9163 58.7662C49.9328 59.7919 50.4645 60.615 51.1039 60.6047Z" fill="#FFDF6F"/>
<path d="M31.2577 59.2582C31.5998 59.2582 31.8771 58.6398 31.8771 57.8771C31.8771 57.1144 31.5998 56.4961 31.2577 56.4961C30.9156 56.4961 30.6383 57.1144 30.6383 57.8771C30.6383 58.6398 30.9156 59.2582 31.2577 59.2582Z" fill="#FFDF6F"/>
<path d="M29.3012 58.931C29.582 58.931 29.8097 58.4233 29.8097 57.797C29.8097 57.1708 29.582 56.6631 29.3012 56.6631C29.0203 56.6631 28.7926 57.1708 28.7926 57.797C28.7926 58.4233 29.0203 58.931 29.3012 58.931Z" fill="#FFDF6F"/>
<path d="M123.246 41.9894C123.092 41.9584 122.933 41.9268 122.772 41.8951C121.885 41.7209 120.885 41.5344 119.792 41.3388C119.66 41.3156 119.527 41.2924 119.393 41.2692C117.901 41.0039 116.244 40.7238 114.459 40.4309C114.318 40.4076 114.177 40.3857 114.036 40.3618C112.248 40.0695 110.337 39.7662 108.341 39.457C108.195 39.4338 108.046 39.4106 107.898 39.388C105.897 39.0776 103.814 38.7607 101.684 38.4413C101.479 38.4103 101.273 38.3787 101.066 38.3477C98.6756 37.9908 96.2298 37.6294 93.7789 37.2726C93.4909 37.2306 93.2029 37.188 92.9149 37.1461C89.9889 36.7201 87.0648 36.3 84.2275 35.8954H84.2262C83.9518 35.856 83.6787 35.8167 83.4062 35.7773C79.9029 35.2778 76.5478 34.8041 73.5047 34.373C73.1241 34.3201 72.7475 34.2666 72.3773 34.2149C70.246 33.9142 68.2863 33.6367 66.5609 33.3915C63.2174 32.9165 60.749 32.559 59.5983 32.3712C59.6546 31.9246 59.7077 31.5097 59.7594 31.1237C60.0966 28.563 60.327 27.2988 60.4623 26.9613C60.7231 26.3121 63.721 26.5283 64.4167 26.658C65.0406 26.7748 112.739 36.4252 122.478 38.3967C122.803 39.5125 123.054 40.7238 123.247 41.9887L123.246 41.9894Z" fill="#3D5582"/>
<path d="M66.2802 48.0542L66.2077 49.9954L123.755 51.9366V50.7866L66.2802 48.0542Z" fill="white"/>
<path d="M54.1241 52.0302C54.0626 52.9221 53.3649 53.6397 52.4724 53.7294L38.5796 55.1194L36.9118 54.9065L28.3092 52.8278L28.4096 51.6553L28.418 51.561L54.1241 52.0302Z" fill="#D7E5FF"/>
<path d="M55.603 48.8408C55.1254 50.7188 54.574 51.9772 53.9488 52.0456C53.8627 52.0553 53.7494 52.0643 53.6116 52.0714C50.2494 52.2656 32.1925 52.032 28.9196 51.7365C28.6193 51.7094 28.4446 51.6823 28.4148 51.6545L28.4446 51.3099C28.5384 50.4922 28.6523 49.6675 28.7843 48.8415L55.603 48.8408Z" fill="#3D5582"/>
<path d="M38.3224 48.8081C39.0793 43.5962 41.4759 34.8743 42.5796 31.3066L35.4844 31.5904C33.2139 36.8023 31.7003 45.2404 31.2273 48.8081H38.3224Z" fill="#B9D5FF"/>
<path d="M66.5154 38.684L66.61 33.4336L74.2728 34.5215L66.5154 38.684Z" fill="#98C1FF"/>
<path d="M60.2751 36.9846L60.7481 32.5854L65.4783 33.2005L60.2751 36.9846Z" fill="#98C1FF"/>
</g>
<path d="M92.2501 68.625C64.3501 69.525 44.6251 87 38.2501 95.625H61.8751L87.7501 84.375L92.2501 68.625Z" fill="#80CD51"/>
</g>
<defs>
<clipPath id="clip0_3331_8973">
<rect width="90" height="90" rx="45" fill="white"/>
</clipPath>
<clipPath id="clip1_3331_8973">
<rect width="99.6785" height="51.0852" fill="white" transform="translate(24.1346 24.4951)"/>
</clipPath>
</defs>
</svg>
