<svg width="70" height="76" viewBox="0 0 70 76" fill="none" xmlns="http://www.w3.org/2000/svg">
<g clip-path="url(#clip0_3331_8916)">
<rect width="90" height="90" rx="45" transform="matrix(-1 0 0 1 90 0)" fill="white"/>
<circle cx="45" cy="45" r="45" transform="matrix(-1 0 0 1 90 0)" fill="url(#paint0_linear_3331_8916)"/>
<path d="M75.409 97.804C92.4637 92.3096 93.1643 82.8074 92.8322 77.2246L78.8126 57.646C80.3927 73.5043 49.0668 78.942 33.2064 79.6785C13.4593 79.0833 -3.69891 87.2035 -9.80963 91.3381C-6.22856 128.122 15.8096 143.32 26.3811 146.321C45.1055 138.086 51.3043 124.483 52.0631 118.711C55.4833 107.329 69.0521 100.03 75.409 97.804Z" fill="#1A1A1A" fill-opacity="0.25"/>
<path d="M20.3813 63.5386C5.11055 72.9117 -2.55999 67.2597 -6.58256 63.3742L-12.3237 39.9881C-1.31161 51.5084 23.2037 31.263 34.0849 19.7002C46.4843 4.31982 63.8161 -3.42293 70.9321 -5.37176C96.5296 21.2858 93.7263 47.9091 89.1249 57.8886C70.6867 66.7458 56.3246 62.5996 51.4484 59.4193C40.5806 54.6087 26.2088 60.1611 20.3813 63.5386Z" fill="white" fill-opacity="0.1"/>
<path d="M43.6952 68.0161C43.6952 68.0161 17.8402 69.8814 13.9095 70.0544C13.9095 70.0544 -8.7968 71.5478 -18.3843 85.3449L43.6416 84.9388L43.6952 68.0161Z" fill="#0B8239"/>
<path d="M96.3519 69.0966C96.3519 69.0966 52.6253 64.832 25.172 69.6531C16.7525 71.1348 1.03283 76.1514 -3.18839 85.0565L34.043 85.3348L96.3519 69.0966Z" fill="#A4705F"/>
<path d="M57.1671 64.762L55.8747 70.0419L20.522 70.0193L22.6479 64.7319L57.1671 64.762Z" fill="#05183E"/>
<path d="M93.6733 64.7773V69.0869L55.6441 69.997L56.7147 64.687L93.6733 64.7773Z" fill="#05183E"/>
<path d="M43.6404 19.4038L48.5804 21.5849C49.1157 21.8407 49.4522 22.6379 49.4522 23.217V25.9247L44.7722 26.0751L43.6404 19.4038Z" fill="#A1C2F6"/>
<path d="M42.7166 19.1519H37.9371C36.7671 19.1519 35.8265 20.0845 35.8265 21.2277V24.8755H44.6207V21.0171C44.6131 19.9867 43.7642 19.1519 42.7166 19.1519Z" fill="#FFDA7E"/>
<path d="M56.9367 22.468L93.9412 44.3622L93.8036 62.9545H56.9291L51.6755 51.8006C50.7349 49.8 50.5208 47.5361 51.0637 45.4001L56.9291 22.468H56.9367Z" fill="#DEEAFF"/>
<path d="M56.9406 22.468H27.3691C26.4285 22.468 25.595 23.0697 25.312 23.9497L18.5672 45.1143C17.7566 47.6564 17.8255 50.3866 18.7508 52.8836L22.5743 63.1801L56.9406 62.9545L51.8094 52.0488C50.7923 49.8902 50.5552 47.4458 51.1517 45.1368L56.9482 22.468H56.9406Z" fill="#A1C2F6"/>
<path d="M93.6714 64.88L54.3269 64.7822L54.5639 62.9546H93.8167L93.6714 64.88Z" fill="#517ECC"/>
<path d="M22.5706 63.1802L22.5094 66.7001H51.3927C53.2051 66.7001 54.681 65.1357 54.681 63.2028V62.9546L22.5706 63.1802Z" fill="#4C527B"/>
<path d="M93.8708 52.6602L52.1709 40.7917L19.9229 40.9647L18.447 45.6053L51.0621 45.4022L93.8096 54.8263L93.8708 52.6602Z" fill="#7EAFFF"/>
<path d="M50.4347 28.4928L48.4388 35.8033C48.3317 36.1944 47.9723 36.4577 47.567 36.4577H38.9716C38.3599 36.4577 37.9316 35.8786 38.1075 35.3069L40.2487 28.2145C40.394 27.7407 40.8299 27.4172 41.3346 27.4097L49.5553 27.3796C50.1518 27.3796 50.58 27.9287 50.4271 28.4928H50.4347Z" fill="#1A2225" stroke="white" stroke-width="0.756556" stroke-miterlimit="10"/>
<path d="M37.2394 28.6235L35.3047 35.7009C35.1747 36.1748 34.7388 36.4982 34.2417 36.4982H25.8911C25.2334 36.4982 24.7669 35.8739 24.9658 35.2572L27.2446 28.1045C27.3746 27.7059 27.7417 27.4352 28.1699 27.4352L36.2988 27.4126C36.9412 27.4126 37.4 28.0068 37.2394 28.616V28.6235Z" fill="#1A2225" stroke="white" stroke-width="0.756556" stroke-miterlimit="10"/>
<path d="M61.9898 64.791H63.3127V69.2887H61.9898V64.791Z" fill="#454351"/>
<path d="M64.0521 64.791H65.3751V69.2887H64.0521V64.791Z" fill="#454351"/>
<path d="M65.9635 64.791H67.2865V69.2887H65.9635V64.791Z" fill="#454351"/>
<path d="M67.875 64.791H69.198V69.2887H67.875V64.791Z" fill="#454351"/>
<path d="M69.7865 64.791H71.1094V69.2887H69.7865V64.791Z" fill="#454351"/>
<path d="M60.0669 64.791H61.3899V69.2887H60.0669V64.791Z" fill="#454351"/>
<path d="M58.1554 64.791H59.4784V69.2887H58.1554V64.791Z" fill="#454351"/>
<path d="M52.1836 40.7917L51.0748 45.4022L18.4597 45.6053L19.9356 40.9647L52.1836 40.7917Z" fill="#0057E3"/>
<path opacity="0.4" d="M54.6961 62.9479L49.5649 52.0422C48.5478 49.8836 48.3107 47.4392 48.9072 45.1302L54.7037 22.4614H55.5832C56.2867 22.4614 56.7991 23.1082 56.6308 23.7776L51.1708 45.1227C50.5819 47.4317 50.8114 49.8686 51.8284 52.0347L56.9597 62.9404" fill="white"/>
<path d="M66.9936 34.1193C67.0797 34.1751 67.1331 34.2717 67.1331 34.3743L67.1331 41.9855C67.1331 42.0691 67.0664 42.13 66.9856 42.1088C66.3613 41.9448 64.2399 41.1157 63.9438 41.0209L60.1203 39.7826C59.9062 39.7149 59.7609 39.5269 59.7609 39.3087L59.9292 30.7722C59.9292 30.4262 60.3115 30.2156 60.6174 30.3886L64.5175 32.5999C65.8397 33.343 65.1452 32.9212 66.9936 34.1193Z" fill="#5274B6"/>
<path d="M27.2805 22.4761C27.2805 21.9797 27.6017 21.566 28.0222 21.5209L35.8759 20.7612L35.8529 22.4761C35.8529 22.4761 27.2499 22.4761 27.2805 22.4761Z" fill="#FFDA7E"/>
<path d="M38.9496 49.289H41.7714C42.1308 49.289 42.4367 49.0483 42.5285 48.7098L44.3179 41.7001C44.4403 41.2188 44.0732 40.7524 43.5609 40.7524H40.7391C40.3796 40.7524 40.0738 40.9931 39.982 41.3316L38.1926 48.3413C38.0702 48.8227 38.4373 49.289 38.9496 49.289Z" fill="#649FFF"/>
<path d="M23.9397 49.3669H26.7615C27.1209 49.3669 27.4268 49.1262 27.5186 48.7877L29.308 41.778C29.4304 41.2966 29.0633 40.8303 28.5509 40.8303H25.7291C25.3697 40.8303 25.0638 41.071 24.9721 41.4095L23.1826 48.4192C23.0603 48.9005 23.4274 49.3669 23.9397 49.3669Z" fill="#649FFF"/>
<path d="M40.0684 41.1289V49.2818H39.0284C38.4472 49.2818 38.019 48.7403 38.1719 48.1837L40.076 41.1213L40.0684 41.1289Z" fill="#DEEAFF"/>
<path d="M25.0082 41.2131V49.366H23.9681C23.387 49.366 22.9587 48.8245 23.1117 48.2679L25.0158 41.2056L25.0082 41.2131Z" fill="#DEEAFF"/>
<path d="M41.7398 45.4579C40.9036 45.4579 40.2257 44.7911 40.2257 43.9687C40.2257 43.1462 40.9036 42.4795 41.7398 42.4795C42.5761 42.4795 43.254 43.1462 43.254 43.9687C43.254 44.7911 42.5761 45.4579 41.7398 45.4579Z" fill="#F7B81A"/>
<path d="M41.8618 45.4579C41.0929 45.4579 40.4695 44.7911 40.4695 43.9687C40.4695 43.1462 41.0929 42.4795 41.8618 42.4795C42.6307 42.4795 43.254 43.1462 43.254 43.9687C43.254 44.7911 42.6307 45.4579 41.8618 45.4579Z" fill="#FFDA7E"/>
<path d="M26.745 45.4579C25.9088 45.4579 25.2309 44.7911 25.2309 43.9687C25.2309 43.1462 25.9088 42.4795 26.745 42.4795C27.5813 42.4795 28.2592 43.1462 28.2592 43.9687C28.2592 44.7911 27.5813 45.4579 26.745 45.4579Z" fill="#F7B81A"/>
<path d="M26.8669 45.4579C26.098 45.4579 25.4747 44.7911 25.4747 43.9687C25.4747 43.1462 26.098 42.4795 26.8669 42.4795C27.6358 42.4795 28.2592 43.1462 28.2592 43.9687C28.2592 44.7911 27.6358 45.4579 26.8669 45.4579Z" fill="#FFDA7E"/>
<path d="M42.731 64.36C44.5175 64.36 45.9657 62.9356 45.9657 61.1785C45.9657 59.4215 44.5175 57.9971 42.731 57.9971C40.9445 57.9971 39.4962 59.4215 39.4962 61.1785C39.4962 62.9356 40.9445 64.36 42.731 64.36Z" fill="#0F2A5E"/>
<path d="M30.0186 64.1146C31.8051 64.1146 33.2533 62.6902 33.2533 60.9332C33.2533 59.1761 31.8051 57.7517 30.0186 57.7517C28.2321 57.7517 26.7838 59.1761 26.7838 60.9332C26.7838 62.6902 28.2321 64.1146 30.0186 64.1146Z" fill="#0F2A5E"/>
<path d="M42.3941 63.5499C43.4779 63.5499 44.3565 62.6858 44.3565 61.6199C44.3565 60.554 43.4779 59.6899 42.3941 59.6899C41.3104 59.6899 40.4318 60.554 40.4318 61.6199C40.4318 62.6858 41.3104 63.5499 42.3941 63.5499Z" fill="#34528C"/>
<path d="M29.683 63.3048C30.7667 63.3048 31.6453 62.4407 31.6453 61.3748C31.6453 60.3089 30.7667 59.4448 29.683 59.4448C28.5992 59.4448 27.7207 60.3089 27.7207 61.3748C27.7207 62.4407 28.5992 63.3048 29.683 63.3048Z" fill="#34528C"/>
<path d="M44.5892 20.4829L56.0446 21.5133C56.1517 21.5208 56.2511 21.5584 56.3428 21.596H56.3581C56.404 21.6186 56.4423 21.6412 56.4805 21.6713L93.9362 44.137L93.8903 45.2351L58.6926 24.4314L56.6411 23.3109C56.557 22.822 56.1287 22.4685 55.624 22.4685C52.4581 22.4685 44.5816 22.4835 44.5816 22.4835V20.4829H44.5892Z" fill="#FFDA7E"/>
<path d="M33.3825 27.0452L27.0504 35.1761H29.5689L36.1167 27.0452H33.3825Z" fill="#D9D9D9" fill-opacity="0.2"/>
<path d="M46.7174 27.0452L40.3853 35.1761H42.9038L49.4516 27.0452H46.7174Z" fill="#D9D9D9" fill-opacity="0.2"/>
</g>
<defs>
<linearGradient id="paint0_linear_3331_8916" x1="45" y1="0" x2="45" y2="90" gradientUnits="userSpaceOnUse">
<stop stop-color="#FF8B64"/>
<stop offset="0.893332" stop-color="#EC3300"/>
</linearGradient>
<clipPath id="clip0_3331_8916">
<rect width="90" height="90" rx="45" transform="matrix(-1 0 0 1 90 0)" fill="white"/>
</clipPath>
</defs>
</svg>
