<svg width="70" height="74" viewBox="0 0 70 74" fill="none" xmlns="http://www.w3.org/2000/svg">
<g clip-path="url(#clip0_3331_8879)">
<circle cx="45" cy="45" r="45" fill="#0F6BFF"/>
<path d="M50.8812 20.625V23.7563L74.9535 38.3144L74.2339 35.152L50.8812 20.625Z" fill="#DFE7FD"/>
<path d="M16.7871 46.6823L20.3396 47.7495L50.9338 27.178L69.1737 37.5767V40.2017L74.9986 37.4053L50.9035 23.7507L16.7947 46.6823H16.7871Z" fill="#B2CAFF"/>
<path d="M70.9231 38.4086L74.7559 110.241L54.2739 116.769L51.5773 26.6001L70.9231 38.4086Z" fill="#DFE7FD"/>
<path d="M20.0856 47.7012L13.8428 116.206L54.4671 118.124L51.5888 26.6001L20.0856 47.7012Z" fill="white"/>
<path d="M17.2492 43.9305L16.7871 46.6879L50.8884 23.7563L74.9986 37.4031L74.7032 35.3935L50.8884 20.625L17.2492 43.9305Z" fill="white"/>
<path d="M16.3883 63.3128L52.1712 42.6323L74.6528 52.9765L74.8725 55.8429L52.2772 45.6156L15.8278 66.5454L16.3883 63.3128Z" fill="white"/>
<path d="M15.8278 66.5433L18.1457 66.8704L52.3075 47.8958L71.5927 56.6042L74.8725 55.8408L52.2772 45.6135L15.8278 66.5433Z" fill="#B2CAFF"/>
<path d="M14.0328 82.719L52.877 64.3413L76.2222 72.3876L76.4267 75.1995L52.9906 67.3246L13.5352 85.7978L14.0328 82.719Z" fill="white"/>
<path d="M13.5352 85.7927L16.3064 86.2551L52.8694 69.4693L72.9878 75.9967L76.4645 75.2333L52.8391 67.187L13.5352 85.7927Z" fill="#B2CAFF"/>
<path d="M22.6302 48.6962L21.7894 59.866L49.1795 43.8434L48.831 31.3806L22.6302 48.6962Z" fill="#3E67CE" stroke="#89CDFF" stroke-width="0.534135" stroke-miterlimit="10"/>
<path d="M23.0129 48.8643L34.1704 52.1358L48.6911 43.6144L48.4259 32.1953L23.0129 48.8643Z" fill="#597FF7"/>
<path d="M29.8787 44.5039C29.8787 44.3564 29.7591 44.2368 29.6116 44.2368C29.4642 44.2368 29.3446 44.3564 29.3446 44.5039H29.6116H29.8787ZM29.6116 44.5039H29.3446V55.02H29.6116H29.8787V44.5039H29.6116Z" fill="#89CDFF"/>
<path d="M39.1698 37.8132V50.167" stroke="#89CDFF" stroke-width="0.534135" stroke-miterlimit="10"/>
<path d="M20.858 68.2778L20.0096 79.4554L49.4676 65.2945L49.1267 52.707L20.858 68.2778Z" fill="#3E67CE" stroke="#89CDFF" stroke-width="0.534135" stroke-miterlimit="10"/>
<path d="M21.2111 68.454L34.0805 72.1851L49.0329 64.9566L48.7375 53.3662L21.2111 68.454Z" fill="#597FF7"/>
<path d="M29.9196 63.4978L29.6116 75.1002" stroke="#89CDFF" stroke-width="0.534135" stroke-miterlimit="10"/>
<path d="M39.1698 57.8892V70.2429" stroke="#89CDFF" stroke-width="0.534135" stroke-miterlimit="10"/>
<path d="M53.9868 31.3628L54.2671 43.1557L69.7573 50.392L69.1741 40.2036L53.9868 31.3628Z" fill="#3E67CE" stroke="#89CDFF" stroke-width="0.534135" stroke-miterlimit="10"/>
<path d="M68.7893 40.4274L60.1011 45.3502L54.6549 42.8576L54.3898 32.0383L68.7893 40.4274Z" fill="#597FF7"/>
<path d="M55.1733 52.7256L55.4763 64.7055L70.3985 69.9009L69.8834 59.253L55.1733 52.7256Z" fill="#3E67CE" stroke="#89CDFF" stroke-width="0.534135" stroke-miterlimit="10"/>
<path d="M69.4832 59.5035L58.5454 65.3688L55.8564 64.4108L55.5534 53.3188L69.4832 59.5035Z" fill="#597FF7"/>
<path d="M62.0014 36.4768L62.3 46.9264" stroke="#89CDFF" stroke-width="0.534135"/>
<path d="M62.4993 56.3416L62.7979 67.2887" stroke="#89CDFF" stroke-width="0.534135"/>
</g>
<defs>
<clipPath id="clip0_3331_8879">
<rect width="90" height="90" rx="45" fill="white"/>
</clipPath>
</defs>
</svg>
